<?xml version="1.0" standalone="no"?>
<!DOCTYPE svg PUBLIC "-//W3C//DTD SVG 1.1//EN" "http://www.w3.org/Graphics/SVG/1.1/DTD/svg11.dtd" >
<svg xmlns="http://www.w3.org/2000/svg">
<metadata>Generated by IcoMoon</metadata>
<defs>
<font id="icomoon" horiz-adv-x="512">
<font-face units-per-em="512" ascent="480" descent="-32" />
<missing-glyph horiz-adv-x="512" />
<glyph unicode="&#x20;" horiz-adv-x="256" d="" />
<glyph unicode="&#xe000;" glyph-name="home" d="M512 184.777l-256 198.714-256-198.714v81.019l256 198.713 256-198.714zM448 192v-192h-384v192l192 144z" />
<glyph unicode="&#xe005;" glyph-name="home2" d="M448 192v-192h-384v192h64v-128h256v128zM512 184.777l-256 198.714-256-198.714v81.019l256 198.713 256-198.714z" />
<glyph unicode="&#xe00c;" glyph-name="newspaper" d="M448 352v64h-448v-352c0-17.673 14.327-32 32-32h432c26.511 0 48 21.489 48 48v272h-64zM416 64h-384v320h384v-320zM64 320h320v-32h-320zM256 256h128v-32h-128zM256 192h128v-32h-128zM256 128h96v-32h-96zM64 256h160v-160h-160z" />
<glyph unicode="&#xe00e;" glyph-name="pencil" d="M397.042 365.044c-40.701 40.526-58.654 88.728-40.099 107.663s66.592 1.432 107.293-39.095c0.23-0.229 0.459-0.458 0.688-0.688 40.701-40.526 58.654-88.729 40.099-107.663s-66.592-1.431-107.293 39.095c-0.23 0.229-0.459 0.458-0.688 0.688zM195.896 73.026l225.637 225.637c13.607-7.621 27.189-13.070 40.16-16.048l-237.693-237.693-224-76.922 76.922 224 237.69 237.691c1.169-5.179 2.738-10.47 4.718-15.841 2.948-8.001 6.768-16.154 11.348-24.302l-225.65-225.653 26.869-26.869 220.66 220.661c5.448-6.685 11.333-13.223 17.62-19.511 6.339-6.339 12.858-12.233 19.485-17.645l-220.635-220.636 26.869-26.869z" />
<glyph unicode="&#xe013;" glyph-name="quill" d="M0-32c64 192 231.5 512 512 512-131.5-105.5-192-352-288-352s-96 0-96 0l-96-160h-32z" />
<glyph unicode="&#xe01b;" glyph-name="marker" d="M469.486 437.486c-25.969 25.97-55.528 42.514-84.413 42.514-19.763 0-39.211-7.745-56.979-25.514l-247.871-246.262-80.223-208.224 32-32 208.223 80.225 246.264 247.87c43.738 43.738 26.738 97.653-17.001 141.391zM240.149 93.553l-114.598 114.597 201.804 200.494 113.288-113.288-200.494-201.803z" />
<glyph unicode="&#xe01d;" glyph-name="marker2" d="M228-12h284v8h-276zM244 4h268v8h-260zM212-28h300v8h-292zM292 52h220v8h-212zM276 36h236v8h-228zM260 20h252v8h-244zM469.486 437.486c-25.969 25.97-55.528 42.514-84.413 42.514-19.764 0-39.211-7.745-56.979-25.514l-247.871-246.261-80.223-208.225 32-32 208.223 80.225 246.265 247.87c43.737 43.738 26.737 97.653-17.002 141.391zM240.149 93.553l-114.598 114.597 201.804 200.494 113.287-113.288-200.493-201.803z" />
<glyph unicode="&#xe020;" glyph-name="brush" d="M160.061 160c-64.025 0-42.181-113.14-160.061-138.637 32.011-21.324 125.898-39.027 192.072 10.668 57.226 42.975 32.013 127.969-32.011 127.969zM505.965 441.965c-32.009 32.007-110.472-72.027-171.617-107.603-60.98-37.464-144.033-112.027-96.021-160.037 48.010-48.013 122.571 35.040 160.036 96.022 35.575 61.148 139.61 139.611 107.602 171.618z" />
<glyph unicode="&#xe021;" glyph-name="palette" d="M257.54 416c-164.546 0-257.54-109.352-257.54-189.347 0-121.887 109.354-190.477 200.308-212.956 90.962-22.488 125.172 18.765 123.714 66.303-1.771 57.75 27.073 58.496 47.52 56.459 20.431-2.051 140.458-29.764 140.458 62.215 0 113.826-89.928 217.326-254.46 217.326zM224 384c17.673 0 32-14.327 32-32s-14.327-32-32-32-32 14.327-32 32 14.327 32 32 32zM80 191.754c-8.973 0-16.246 7.273-16.246 16.246s7.273 16.246 16.246 16.246 16.246-7.273 16.246-16.246-7.273-16.246-16.246-16.246zM128 256c-17.673 0-32 14.327-32 32s14.327 32 32 32 32-14.327 32-32-14.327-32-32-32zM256 128c-35.346 0-64 21.49-64 48s28.654 48 64 48c35.347 0 64-21.49 64-48s-28.653-48-64-48zM368 256c-26.51 0-48 21.49-48 48s21.49 48 48 48 48-21.49 48-48-21.49-48-48-48z" />
<glyph unicode="&#xe023;" glyph-name="eyedropper" d="M490.927 458.928c70.41-70.41-55.713-113.366-85.421-143.069-5.505-5.508-10.809-10.808-15.788-15.791l30.319-30.317c6.195-6.196 6.195-16.334 0-22.529l-30.275-30.277c-6.195-6.193-16.334-6.193-22.528 0l-30.164 30.165-188.585-188.583c-32.289-32.293-94.209-60.488-124.248-90.527-9.012 9.012-12.117 12.118-12.117 12.118s-3.108 3.106-12.12 12.119c30.039 30.041 58.235 91.958 90.527 124.252l188.588 188.584-30.162 30.164c-6.197 6.195-6.197 16.332 0 22.527l30.273 30.277c6.198 6.197 16.336 6.197 22.53 0l30.318-30.318c4.98 4.982 10.281 10.28 15.788 15.789 29.704 29.702 72.657 155.824 143.065 85.416zM133.82 73.193l191.801 191.808-28.624 28.625-191.803-191.807c-14.833-14.832-29.705-38.154-44.091-60.715l-0.066-0.103c-7.874-12.345-15.474-24.262-23.192-35.155 10.927 7.744 22.878 15.365 35.257 23.258 22.558 14.384 45.884 29.257 60.718 44.089z" />
<glyph unicode="&#xe02a;" glyph-name="paint-format" d="M512 192v192h-96v32c0 17.6-14.4 32-32 32h-352c-17.6 0-32-14.4-32-32v-96c0-17.6 14.4-32 32-32h352c17.6 0 32 14.4 32 32v32h64v-128h-288v-64h-16c-8.837 0-16-7.163-16-16v-160c0-8.837 7.163-16 16-16h64c8.837 0 16 7.163 16 16v160c0 8.837-7.163 16-16 16h-16v32h288zM384 384h-352v32h352v-32z" />
<glyph unicode="&#xe02c;" glyph-name="image" d="M0 416v-416h512v416h-512zM480 32h-448v352h448v-352zM352 304c0 26.51 21.49 48 48 48s48-21.49 48-48c0-26.51-21.49-48-48-48s-48 21.49-48 48zM448 64h-384l96 256 128-160 64 48z" />
<glyph unicode="&#xe036;" glyph-name="camera" d="M152 176c0-57.438 46.562-104 104-104s104 46.562 104 104-46.562 104-104 104-104-46.562-104-104zM480 352h-112c-8 32-16 64-48 64h-128c-32 0-40-32-48-64h-112c-17.6 0-32-14.4-32-32v-288c0-17.6 14.4-32 32-32h448c17.6 0 32 14.4 32 32v288c0 17.6-14.4 32-32 32zM256 34c-78.425 0-142 63.574-142 142s63.575 142 142 142c78.426 0 142-63.575 142-142s-63.573-142-142-142zM480 256h-64v32h64v-32z" />
<glyph unicode="&#xe03a;" glyph-name="music" d="M160 384l352 96v-368c0-44.183-50.145-80-112-80s-112 35.817-112 80c0 44.183 50.145 80 112 80 17.179 0 33.451-2.766 48-7.703v164.794l-224-61.091v-240c0-44.183-50.144-80-112-80s-112 35.817-112 80c0 44.183 50.144 80 112 80 17.179 0 33.451-2.766 48-7.703v263.703z" />
<glyph unicode="&#xe049;" glyph-name="film" d="M0 416v-384h512v384h-512zM96 64h-64v64h64v-64zM96 192h-64v64h64v-64zM96 320h-64v64h64v-64zM384 64h-256v320h256v-320zM480 64h-64v64h64v-64zM480 192h-64v64h64v-64zM480 320h-64v64h64v-64z" />
<glyph unicode="&#xe04a;" glyph-name="film2" d="M0 416v-384h512v384h-512zM96 64h-64v64h64v-64zM96 192h-64v64h64v-64zM96 320h-64v64h64v-64zM384 64h-256v320h256v-320zM480 64h-64v64h64v-64zM480 192h-64v64h64v-64zM480 320h-64v64h64v-64zM192 320v-192l128 96z" />
<glyph unicode="&#xe04c;" glyph-name="camera2" d="M489.42 351.874c-5.294 0-10.729-1.861-15.718-5.383l-89.702-63.307v52.816c0 26.4-21.6 48-48 48h-288c-26.4 0-48-21.6-48-48v-224c0-26.4 21.6-48 48-48h288c26.4 0 48 21.6 48 48v52.815l89.701-63.307c4.989-3.521 10.424-5.382 15.717-5.383 0.001 0 0.001 0 0.003 0 7.044 0 13.477 3.248 17.646 8.911 3.228 4.385 4.934 10.027 4.934 16.318v205.291c-0.001 16.563-11.36 25.229-22.581 25.229z" />
<glyph unicode="&#xe062;" glyph-name="connection" horiz-adv-x="640" d="M320 192c52.935 0 100.935-21.533 135.701-56.299l-45.234-45.234c-23.177 23.178-55.178 37.533-90.467 37.533s-67.289-14.355-90.467-37.533l-45.234 45.234c34.766 34.766 82.766 56.299 135.701 56.299zM93.726 226.274c60.44 60.44 140.799 93.726 226.274 93.726s165.834-33.286 226.275-93.726l-45.255-45.254c-48.353 48.352-112.64 74.98-181.020 74.98-68.381 0-132.667-26.628-181.019-74.981l-45.255 45.255zM494.392 412.781c53.351-22.566 101.258-54.864 142.391-95.998v0l-45.254-45.254c-72.528 72.528-168.96 112.471-271.529 112.471-102.57 0-199-39.943-271.529-112.471l-45.255 45.255c41.134 41.133 89.041 73.431 142.392 95.997 55.252 23.369 113.926 35.219 174.392 35.219s119.139-11.85 174.392-35.219zM288 32c0 17.673 14.327 32 32 32s32-14.327 32-32c0-17.673-14.327-32-32-32s-32 14.327-32 32z" />
<glyph unicode="&#xe069;" glyph-name="podcast" d="M256 480c-141.385 0-256-114.615-256-256 0-70.691 28.653-134.691 74.98-181.019l22.627 22.626c-40.535 40.538-65.607 96.538-65.607 158.393 0 123.712 100.288 224 224 224s224-100.288 224-224c0-61.855-25.072-117.855-65.608-158.393l22.628-22.626c46.326 46.328 74.98 110.328 74.98 181.019 0 141.385-114.615 256-256 256zM256 480c-141.385 0-256-114.615-256-256 0-70.691 28.653-134.691 74.98-181.019l22.627 22.626c-40.535 40.538-65.607 96.538-65.607 158.393 0 123.712 100.288 224 224 224s224-100.288 224-224c0-61.855-25.072-117.855-65.608-158.393l22.628-22.626c46.326 46.328 74.98 110.328 74.98 181.019 0 141.385-114.615 256-256 256v0zM256 384c-88.366 0-160-71.634-160-160 0-44.184 17.909-84.184 46.862-113.137l22.639 22.638c-23.161 23.161-37.486 55.157-37.486 90.499 0 70.684 57.301 127.985 127.985 127.985s127.984-57.301 127.984-127.985c0-35.342-14.325-67.338-37.486-90.499l22.639-22.638c28.955 28.953 46.863 68.953 46.863 113.137 0 88.366-71.635 160-160 160zM301.255 178.745c11.582 11.582 18.745 27.582 18.745 45.255 0 35.346-28.654 64-64 64-35.347 0-64-28.654-64-64 0-17.673 7.164-33.673 18.745-45.255l22.627 22.627c-5.79 5.791-9.372 13.791-9.372 22.628 0 17.673 14.327 32 32 32s32-14.327 32-32c0-8.837-3.582-16.837-9.372-22.628l22.627-22.627zM244 192l-84-224h192l-84 224z" />
<glyph unicode="&#xe085;" glyph-name="file" d="M352 480h-320v-512h448v384l-128 128zM448 0h-384v448h288v-96h96v-352z" />
<glyph unicode="&#xe087;" glyph-name="file-plus" d="M448 96v64h-64v-64h-64v-64h64v-64h64v64h64v64zM32 448h288v-96h96v-160h32v160l-128 128h-320v-512h288v32h-256z" />
<glyph unicode="&#xe088;" glyph-name="file-minus" d="M320 96h192v-64h-192zM32 448h288v-96h96v-160h32v160l-128 128h-320v-512h288v32h-256z" />
<glyph unicode="&#xe08b;" glyph-name="file-check" d="M352-32l-96 112 40.75 40.75 55.25-55.625 128 126.875 32-32zM32 448h288v-96h96v-160h32v160l-128 128h-320v-512h288v32h-256v448z" />
<glyph unicode="&#xe08c;" glyph-name="file-remove" d="M32 448h288v-96h96v-160h32v160l-128 128h-320v-512h288v32h-256v448zM461.256 64l50.744 50.744v45.256h-45.256l-50.744-50.744-50.744 50.744h-45.256v-45.256l50.744-50.744-50.744-50.744v-45.256h45.256l50.744 50.744 50.744-50.744h45.256v45.256z" />
<glyph unicode="&#xe08e;" glyph-name="copy" d="M416 352h-96v32l-96 96h-224v-384h192v-128h320v288l-96 96zM416 306.745l50.745-50.745h-50.745v50.745zM224 434.745l50.745-50.745h-50.745v50.745zM32 448h160v-96h96v-224h-256v320zM480 0h-256v96h96v224h64v-96h96v-224z" />
<glyph unicode="&#xe08f;" glyph-name="copy2" d="M432 416h-32v-32h16v-256h-128v-128h-192v384h16v32h-32c-8.801 0-16-7.2-16-16v-416c0-8.8 7.199-16 16-16h252l116 116v316c0 8.8-7.2 16-16 16zM320 0v96h96l-96-96zM384 416h-64v32c0 17.6-14.4 32-32 32h-64c-17.602 0-32-14.4-32-32v-32h-64v-64h256v64zM288 416h-64v31.943c0.017 0.019 0.036 0.039 0.057 0.057h63.884c0.021-0.018 0.041-0.038 0.059-0.057v-31.943z" />
<glyph unicode="&#xe093;" glyph-name="paste" d="M416 320v80c0 8.8-7.2 16-16 16h-112v32c0 17.6-14.4 32-32 32h-64c-17.602 0-32-14.4-32-32v-32h-112c-8.801 0-16-7.2-16-16v-320c0-8.8 7.199-16 16-16h144v-96h224l96 96v256h-96zM192 447.943c0.017 0.019 0.036 0.039 0.057 0.057h63.884c0.021-0.018 0.041-0.038 0.059-0.057v-31.943h-64v31.943zM96 352v32h256v-32h-256zM416 13.255v50.745h50.745l-50.745-50.745zM480 96h-96v-96h-160v288h256v-192z" />
<glyph unicode="&#xe096;" glyph-name="stack" d="M512 320l-256 128-256-128 256-128 256 128zM256 405.515l171.029-85.515-171.029-85.515-171.029 85.515 171.029 85.515zM460.722 249.639l51.278-25.639-256-128-256 128 51.278 25.639 204.722-102.361zM460.722 153.639l51.278-25.639-256-128-256 128 51.278 25.639 204.722-102.361z" />
<glyph unicode="&#xe097;" glyph-name="stack2" d="M256 192l-256 128 256 128 256-128zM460.722 249.639l51.278-25.639-256-128-256 128 51.278 25.639 204.722-102.361zM460.722 153.639l51.278-25.639-256-128-256 128 51.278 25.639 204.722-102.361z" />
<glyph unicode="&#xe0a1;" glyph-name="folder" d="M224 416l64-64h224v-352h-512v416z" />
<glyph unicode="&#xe0a5;" glyph-name="folder-plus" d="M288 352l-64 64h-224v-416h512v352h-224zM352 128h-64v-64h-64v64h-64v64h64v64h64v-64h64v-64z" />
<glyph unicode="&#xe0a6;" glyph-name="folder-minus" d="M288 352l-64 64h-224v-416h512v352h-224zM352 128h-192v64h192v-64z" />
<glyph unicode="&#xe0a9;" glyph-name="folder-download" d="M288 352l-64 64h-224v-416h512v352h-224zM256 32l-128 128h96v128h64v-128h96l-128-128z" />
<glyph unicode="&#xe0aa;" glyph-name="folder-upload" d="M288 352l-64 64h-224v-416h224v128h-96l128 128 128-128h-96v-128h224v352z" />
<glyph unicode="&#xe0b2;" glyph-name="cc" d="M255.645 480c-70.134 0-131.857-25.955-179.555-74.347-49.086-49.8-75.735-114.324-75.735-181.661 0-68.027 25.939-131.147 75.041-180.249 49.094-49.094 112.916-75.743 180.249-75.743s132.56 26.649 183.058 76.445c47.697 46.995 72.941 109.413 72.941 179.547 0 69.439-25.244 132.563-73.643 180.959-49.093 49.094-112.222 75.049-182.356 75.049zM256.347 433.707c57.512 0 108.711-21.742 148.694-61.72 39.271-39.28 60.311-91.178 60.311-147.995 0-57.511-20.338-108.001-59.609-146.587-41.385-40.676-94.684-62.418-149.395-62.418-55.404 0-107.314 21.742-147.289 61.716-39.974 39.981-62.426 92.586-62.426 147.289 0 55.413 22.452 108.013 62.426 148.697 39.279 39.974 89.777 61.018 147.288 61.018zM253.042 266.53c-14.453 26.373-39.131 36.865-67.768 36.865-41.686 0-74.867-29.489-74.867-79.403 0-50.759 31.193-79.396 76.287-79.396 28.922 0 53.599 15.881 67.207 39.981l-31.762 16.165c-7.092-17.017-17.868-22.113-31.477-22.113-23.533 0-34.311 19.564-34.311 45.362 0 25.813 9.073 45.378 34.311 45.378 6.808 0 20.416-3.692 28.361-20.701l34.019 17.862zM400.725 266.53c-14.461 26.373-39.129 36.865-67.766 36.865-41.688 0-74.867-29.489-74.867-79.403 0-50.759 31.193-79.396 76.287-79.396 28.92 0 53.59 15.881 67.199 39.981l-31.762 16.165c-7.084-17.017-17.861-22.113-31.479-22.113-23.525 0-34.309 19.564-34.309 45.362 0 25.813 9.080 45.378 34.309 45.378 6.809 0 20.418-3.692 28.369-20.701l34.019 17.862z" />
<glyph unicode="&#xe0b6;" glyph-name="tag" d="M272 480l-272-272 240-240 272 272v240h-240zM400 320c-26.51 0-48 21.49-48 48s21.49 48 48 48 48-21.49 48-48-21.49-48-48-48z" />
<glyph unicode="&#xe0bd;" glyph-name="barcode" d="M0 384h64v-320h-64zM96 384h32v-320h-32zM160 384h32v-320h-32zM256 384h32v-320h-32zM384 384h32v-320h-32zM480 384h32v-320h-32zM320 384h16v-320h-16zM224 384h16v-320h-16zM432 384h16v-320h-16z" />
<glyph unicode="&#xe0bf;" glyph-name="qrcode" d="M160 448h-128v-128h128v128zM192 480v0-192h-192v192h192zM64 416h64v-64h-64zM480 448h-128v-128h128v128zM512 480v0-192h-192v192h192zM384 416h64v-64h-64zM160 128h-128v-128h128v128zM192 160v0-192h-192v192h192zM64 96h64v-64h-64zM224 480h32v-32h-32zM256 448h32v-32h-32zM224 416h32v-32h-32zM256 384h32v-32h-32zM224 352h32v-32h-32zM256 320h32v-32h-32zM224 288h32v-32h-32zM224 224h32v-32h-32zM256 192h32v-32h-32zM224 160h32v-32h-32zM256 128h32v-32h-32zM224 96h32v-32h-32zM256 64h32v-32h-32zM224 32h32v-32h-32zM256 0h32v-32h-32zM480 224h32v-32h-32zM32 224h32v-32h-32zM64 256h32v-32h-32zM0 256h32v-32h-32zM128 256h32v-32h-32zM160 224h32v-32h-32zM192 256h32v-32h-32zM288 224h32v-32h-32zM320 256h32v-32h-32zM352 224h32v-32h-32zM384 256h32v-32h-32zM416 224h32v-32h-32zM448 256h32v-32h-32zM480 160h32v-32h-32zM288 160h32v-32h-32zM320 192h32v-32h-32zM352 160h32v-32h-32zM416 160h32v-32h-32zM448 192h32v-32h-32zM480 96h32v-32h-32zM288 96h32v-32h-32zM320 128h32v-32h-32zM384 128h32v-32h-32zM416 96h32v-32h-32zM448 128h32v-32h-32zM480 32h32v-32h-32zM320 64h32v-32h-32zM352 32h32v-32h-32zM384 64h32v-32h-32zM416 32h32v-32h-32zM320 0h32v-32h-32zM384 0h32v-32h-32zM448 0h32v-32h-32z" />
<glyph unicode="&#xe0c4;" glyph-name="cart" d="M488.791 382.769c16.993-4.855 26.833-22.567 21.978-39.56l-64-224c-3.925-13.737-16.482-23.209-30.769-23.209h-272c-16.138 0-29.751 12.018-31.753 28.031l-28.496 227.969h-51.751c-17.673 0-32 14.327-32 32s14.327 32 32 32h80c16.138 0 29.751-12.017 31.753-28.031l28.496-227.969h219.613l57.369 200.791c4.855 16.993 22.568 26.832 39.56 21.978zM128 16c0 26.51 21.49 48 48 48s48-21.49 48-48c0-26.51-21.49-48-48-48s-48 21.49-48 48zM320 16c0 26.51 21.49 48 48 48s48-21.49 48-48c0-26.51-21.49-48-48-48s-48 21.49-48 48z" />
<glyph unicode="&#xe0c8;" glyph-name="cart-plus" d="M416 96h-272c-16.138 0-29.751 12.018-31.753 28.031l-28.496 227.969h-51.751c-17.673 0-32 14.327-32 32s14.327 32 32 32h80c16.138 0 29.751-12.017 31.753-28.031l28.496-227.969h219.613l57.369 200.791c4.854 16.993 22.567 26.832 39.56 21.978 16.993-4.855 26.833-22.567 21.978-39.56l-64-224c-3.925-13.737-16.482-23.209-30.769-23.209zM128 16c0 26.51 21.49 48 48 48s48-21.49 48-48c0-26.51-21.49-48-48-48s-48 21.49-48 48zM320 16c0 26.51 21.49 48 48 48s48-21.49 48-48c0-26.51-21.49-48-48-48s-48 21.49-48 48zM384 256h-64v-64h-64v64h-64v64h64v64h64v-64h64z" />
<glyph unicode="&#xe0c9;" glyph-name="cart-minus" d="M416 96h-272c-16.138 0-29.751 12.018-31.753 28.031l-28.496 227.969h-51.751c-17.673 0-32 14.327-32 32s14.327 32 32 32h80c16.138 0 29.751-12.017 31.753-28.031l28.496-227.969h219.613l57.369 200.791c4.854 16.993 22.567 26.832 39.56 21.978 16.993-4.855 26.833-22.567 21.978-39.56l-64-224c-3.925-13.737-16.482-23.209-30.769-23.209zM128 16c0 26.51 21.49 48 48 48s48-21.49 48-48c0-26.51-21.49-48-48-48s-48 21.49-48 48zM320 16c0 26.51 21.49 48 48 48s48-21.49 48-48c0-26.51-21.49-48-48-48s-48 21.49-48 48zM192 320h192v-64h-192z" />
<glyph unicode="&#xe0cd;" glyph-name="cart-remove2" d="M488.791 382.769c16.993-4.855 26.833-22.567 21.978-39.56l-64-224c-3.925-13.737-16.482-23.209-30.769-23.209h-272c-16.138 0-29.751 12.018-31.753 28.031l-28.496 227.969h-51.751c-17.673 0-32 14.327-32 32s14.327 32 32 32h80c16.138 0 29.751-12.017 31.753-28.031l28.496-227.969h219.613l57.369 200.791c4.855 16.993 22.568 26.832 39.56 21.978zM128 16c0 26.51 21.49 48 48 48s48-21.49 48-48c0-26.51-21.49-48-48-48s-48 21.49-48 48zM320 16c0 26.51 21.49 48 48 48s48-21.49 48-48c0-26.51-21.49-48-48-48s-48 21.49-48 48zM402.628 250.628l-45.256-45.256-69.372 69.373-69.373-69.372-45.255 45.255 69.373 69.372-69.372 69.373 45.254 45.254 69.373-69.372 69.372 69.373 45.256-45.255-69.373-69.373 69.373-69.372z" />
<glyph unicode="&#xe0d5;" glyph-name="credit" d="M464 416h-416c-26.4 0-48-21.6-48-48v-288c0-26.4 21.6-48 48-48h416c26.4 0 48 21.6 48 48v288c0 26.4-21.6 48-48 48zM48 384h416c8.673 0 16-7.327 16-16v-48h-448v48c0 8.673 7.327 16 16 16zM464 64h-416c-8.673 0-16 7.327-16 16v144h448v-144c0-8.673-7.327-16-16-16zM64 160h32v-64h-32zM128 160h32v-64h-32zM192 160h32v-64h-32z" />
<glyph unicode="&#xe0d6;" glyph-name="credit2" d="M464 416h-416c-26.4 0-48-21.6-48-48v-288c0-26.4 21.6-48 48-48h416c26.4 0 48 21.6 48 48v288c0 26.4-21.6 48-48 48zM96 96h-32v64h32v-64zM160 96h-32v64h32v-64zM224 96h-32v64h32v-64zM496 224h-480v96h480v-96z" />
<glyph unicode="&#xe0d8;" glyph-name="calculate" d="M192 448h-160c-17.6 0-32-14.4-32-32v-160c0-17.6 14.398-32 32-32h160c17.6 0 32 14.4 32 32v160c0 17.6-14.4 32-32 32zM192 320h-160v32h160v-32zM448 448h-160c-17.602 0-32-14.4-32-32v-416c0-17.6 14.398-32 32-32h160c17.6 0 32 14.4 32 32v416c0 17.6-14.4 32-32 32zM448 160h-160v32h160v-32zM448 256h-160v32h160v-32zM192 192h-160c-17.6 0-32-14.4-32-32v-160c0-17.6 14.398-32 32-32h160c17.6 0 32 14.4 32 32v160c0 17.6-14.4 32-32 32zM192 64h-64v-64h-32v64h-64v32h64v64h32v-64h64v-32z" />
<glyph unicode="&#xe0d9;" glyph-name="support" d="M256 480c-141.385 0-256-114.615-256-256s114.615-256 256-256 256 114.615 256 256-114.615 256-256 256zM160 224c0 53.020 42.98 96 96 96s96-42.98 96-96-42.98-96-96-96-96 42.98-96 96zM462.99 138.262v0l-88.71 36.745c6.259 15.092 9.72 31.638 9.72 48.993s-3.461 33.901-9.72 48.993l88.71 36.745c10.954-26.411 17.010-55.365 17.010-85.738s-6.057-59.327-17.010-85.738v0zM341.739 430.99v0 0l-36.745-88.71c-15.092 6.259-31.638 9.72-48.994 9.72s-33.901-3.461-48.993-9.72l-36.745 88.711c26.411 10.952 55.366 17.009 85.738 17.009 30.373 0 59.327-6.057 85.739-17.010zM49.010 309.738l88.711-36.745c-6.259-15.092-9.721-31.638-9.721-48.993s3.461-33.901 9.72-48.993l-88.71-36.745c-10.953 26.411-17.010 55.365-17.010 85.738s6.057 59.327 17.010 85.738zM170.262 17.010l36.745 88.71c15.092-6.259 31.638-9.72 48.993-9.72s33.901 3.461 48.993 9.72l36.745-88.71c-26.411-10.952-55.365-17.010-85.738-17.010s-59.327 6.057-85.738 17.010z" />
<glyph unicode="&#xe0dc;" glyph-name="phone" d="M352 160c-32-32-32-64-64-64s-64 32-96 64-64 64-64 96 32 32 64 64-64 128-96 128-96-96-96-96c0-64 65.75-193.75 128-256s192-128 256-128c0 0 96 64 96 96s-96 128-128 96z" />
<glyph unicode="&#xe0e4;" glyph-name="phone2" d="M403.655-32h-6.055c-32.828 0-82.212 15.348-135.488 42.106-52.054 26.146-99.579 58.811-130.387 89.619-30.809 30.808-63.473 78.332-89.618 130.386-26.76 53.277-42.107 102.661-42.107 135.49v6.056l3.359 5.038c0.667 1 16.557 24.767 36.677 48.91 21.105 25.325 48.63 54.395 74.364 54.395 22.215 0 49.753-22.282 64.191-35.564 11.086-10.199 38.206-37.139 50.555-66.953 13.070-31.554 1.723-49.564-6.205-57.491-13.666-13.666-27.12-21.981-37.931-28.663-16.997-10.505-19.144-12.762-19.144-20.128 0-23.18 29.012-52.193 57.068-80.252 28.069-28.067 57.083-57.081 80.265-57.081 7.366 0 9.624 2.147 20.128 19.144 6.682 10.812 14.998 24.266 28.664 37.932 7.975 7.975 18.547 12.191 30.574 12.191 13.033 0 27.884-4.986 44.139-14.821 12.849-7.772 26.457-18.512 39.355-31.056 10.778-10.483 45.941-46.857 45.941-74.858 0-25.734-29.070-53.26-54.396-74.364-24.144-20.12-47.91-36.011-48.91-36.677l-5.039-3.359zM40.212 359.718c1.845-26.779 15.62-67.814 37.639-111.653 23.947-47.677 54.66-92.558 82.158-120.055s72.378-58.212 120.056-82.158c43.839-22.020 84.871-35.795 111.649-37.64 7.785 5.418 23.196 16.44 38.681 29.225 36.434 30.080 41.072 43.227 41.569 45.081-0.911 5.818-11.776 24.986-35.052 47.28-23.913 22.904-44.934 33.336-54.346 33.336-1.204 0-1.975-0.16-2.29-0.476-10.373-10.373-16.753-20.695-22.922-30.677-11.041-17.865-23.557-38.114-54.154-38.114-39.75 0-74.721 34.97-108.54 68.787-33.827 33.828-68.794 68.797-68.794 108.546 0 30.598 20.249 43.113 38.115 54.154 9.982 6.169 20.304 12.549 30.676 22.921 0.598 0.598 1.055 4.287-1.481 11.354-5.294 14.753-20.189 34.967-38.872 52.752-20.225 19.252-35.43 26.847-39.793 27.58-1.88-0.507-15.083-5.192-45.267-41.8-12.738-15.447-23.653-30.711-29.032-38.443z" />
<glyph unicode="&#xe0e8;" glyph-name="address-book" d="M32 256h48v-80h-48zM32 352h48v-80h-48zM32 160h48v-80h-48zM32 64h48v-80h-48zM96 480v-512h384v512h-384zM288 351.835c35.255 0 63.835-28.58 63.835-63.835s-28.58-63.835-63.835-63.835c-35.255 0-63.835 28.58-63.835 63.835s28.58 63.835 63.835 63.835zM384 96h-192v32c0 35.347 28.654 64 64 64v0h64c35.348 0 64-28.653 64-64v-32zM32 448h48v-80h-48z" />
<glyph unicode="&#xe0eb;" glyph-name="envelope" d="M480 416h-448c-17.6 0-32-14.4-32-32v-320c0-17.6 14.4-32 32-32h448c17.6 0 32 14.4 32 32v320c0 17.6-14.4 32-32 32zM448 352v-23l-192-113.143-192 113.143v23h384zM64 96v177.286l192-113.143 192 113.143v-177.286h-384z" />
<glyph unicode="&#xe0ec;" glyph-name="envelop" d="M325.608 214.818l186.392-128.554v295.947zM0 382.211v-295.947l186.388 128.572zM256 152.309l-44.501 39.955-211.499-128.264h512l-211.505 128.264zM496.64 384h-481.28l240.64-180.926z" />
<glyph unicode="&#xe0ee;" glyph-name="envelop-opened" d="M325.607 118.95l186.393-128.555v295.948zM0 286.343v-295.948l186.388 128.573zM256 56.44l-44.501 39.955-211.499-128.263h512l-211.506 128.263zM15.359 288h481.281l-240.641 180.926z" />
<glyph unicode="&#xe0f1;" glyph-name="location" d="M256 480c-88.366 0-160-71.634-160-160 0-160 160-352 160-352s160 192 160 352c0 88.366-71.635 160-160 160zM256 224c-53.020 0-96 42.98-96 96s42.98 96 96 96 96-42.98 96-96-42.98-96-96-96z" />
<glyph unicode="&#xe0fc;" glyph-name="map" d="M0 384l160 64v-384l-160-64zM352 384v-384l-160 53.333v384zM512 448v-384l-128-51.2v384z" />
<glyph unicode="&#xe0fd;" glyph-name="map2" d="M336 384l-160 64-176-64v-384l176 64 160-64 176 64v384l-176-64zM192 407.135l128-51.2v-315.069l-128 51.199v315.070zM32 361.586l128 46.545v-315.9l-128-46.544v315.899zM480 86.414l-128-46.546v315.9l128 46.545v-315.899z" />
<glyph unicode="&#xe101;" glyph-name="clock" d="M329.372 105.372l-105.372 105.373v141.255h64v-114.745l86.628-86.627zM256 480c-141.385 0-256-114.615-256-256s114.615-256 256-256 256 114.615 256 256-114.615 256-256 256zM256 32c-106.039 0-192 85.961-192 192s85.961 192 192 192c106.039 0 192-85.961 192-192s-85.961-192-192-192z" />
<glyph unicode="&#xe102;" glyph-name="clock2" d="M256 480c-141.385 0-256-114.615-256-256s114.615-256 256-256 256 114.615 256 256-114.615 256-256 256zM329.372 105.372l-105.372 105.373v141.255h64v-114.745l86.628-86.627-45.256-45.256z" />
<glyph unicode="&#xe103;" glyph-name="clock3" d="M384 256v-64h-160v192h64v-128zM256 480c-141.385 0-256-114.615-256-256s114.615-256 256-256 256 114.615 256 256-114.615 256-256 256zM256 32c-106.039 0-192 85.961-192 192s85.961 192 192 192c106.039 0 192-85.961 192-192s-85.961-192-192-192z" />
<glyph unicode="&#xe104;" glyph-name="clock4" d="M256 480c-141.385 0-256-114.615-256-256s114.615-256 256-256 256 114.615 256 256-114.615 256-256 256zM384 192h-160v192h64v-128h96v-64z" />
<glyph unicode="&#xe10c;" glyph-name="bell" d="M512 64c-53.021 0-96 42.98-96 96v142.545c0 70.369-54.971 129.064-128 142.542v34.913h-64v-34.912c-73.032-13.479-128-72.173-128-142.542v-142.546c0-53.020-42.981-96-96-96v-32h214.799c-2.604-5.712-4.055-12.059-4.055-18.745 0-24.993 20.262-45.255 45.256-45.255 24.992 0 45.255 20.262 45.255 45.255 0 6.688-1.451 13.033-4.056 18.745h214.801v32z" />
<glyph unicode="&#xe111;" glyph-name="stopwatch" d="M256.001 383.394v32.606h64v32c0 17.673-14.327 32-32.001 32h-95.999c-17.673 0-32-14.327-32-32v-32h64v-32.606c-107.399-8.169-192-97.901-192-207.394 0-114.875 93.125-208 208-208s208 93.125 208 208c0 109.492-84.601 199.224-192 207.394zM353.138 62.863c-30.221-30.22-70.399-46.863-113.137-46.863s-82.917 16.643-113.137 46.863c-30.22 30.22-46.863 70.4-46.863 113.137s16.643 82.917 46.863 113.137c29.020 29.019 67.224 45.509 108.057 46.774l-10.839-157.010c-0.93-13.145 6.232-18.901 15.918-18.901s16.849 5.756 15.918 18.901l-10.838 157.011c40.833-1.266 79.038-17.756 108.058-46.775 30.22-30.22 46.863-70.4 46.863-113.137s-16.643-82.917-46.863-113.137z" />
<glyph unicode="&#xe115;" glyph-name="calendar" d="M416 384h-32v-64h-96v64h-96v-64h-96v64h-32c-17.6 0-32-14.4-32-32v-352c0-17.6 14.4-32 32-32h352c17.6 0 32 14.4 32 32v352c0 17.6-14.4 32-32 32zM128 0h-63.943c-0.020 0.017-0.041 0.038-0.057 0.058v63.942h64v-64zM128 96h-64v64h64v-64zM128 192h-64v64h64v-64zM224 0h-64v64h64v-64zM224 96h-64v64h64v-64zM224 192h-64v64h64v-64zM320 0h-64v64h64v-64zM320 96h-64v64h64v-64zM320 192h-64v64h64v-64zM416 0.058c-0.017-0.020-0.038-0.041-0.058-0.058h-63.942v64h64v-63.942zM416 96h-64v64h64v-64zM416 192h-64v64h64v-64zM160 416c0 8.836-7.164 16-16 16s-16-7.164-16-16v-64h32v64zM352 416c0 8.836-7.164 16-16 16s-16-7.164-16-16v-64h32v64z" />
<glyph unicode="&#xe118;" glyph-name="print" d="M128 448h256v-64h-256zM480 352h-448c-17.6 0-32-14.4-32-32v-160c0-17.6 14.398-32 32-32h96v-128h256v128h96c17.6 0 32 14.4 32 32v160c0 17.6-14.4 32-32 32zM352 32h-192v160h192v-160zM487.2 304c0-12.813-10.387-23.2-23.199-23.2s-23.201 10.387-23.201 23.2 10.388 23.2 23.201 23.2c12.813 0 23.199-10.387 23.199-23.2z" />
<glyph unicode="&#xe11a;" glyph-name="mouse" d="M320 440.571v-152.571h-128v152.571c-47.799-11.117-96-36.595-96-88.571v-212c0-77.318 71.634-140 160-140 88.363 0 160 62.682 160 140v212c0 51.976-48.201 77.454-96 88.571zM288 446.067c-11.723 1.354-22.679 1.933-32 1.933-9.32 0-20.276-0.579-32-1.933v-126.067h64v126.067z" />
<glyph unicode="&#xe11c;" glyph-name="mouse2" d="M240 448c-48 0-144-18.68-144-96v-212c0-77.318 64.471-140 144-140s144 62.682 144 140v212c0 77.32-96 96-144 96zM352 140c0-28.677-11.537-55.686-32.484-76.051-10.287-10.002-22.277-17.857-35.635-23.353-13.873-5.703-28.636-8.596-43.881-8.596s-30.009 2.893-43.881 8.598c-13.358 5.494-25.35 13.351-35.637 23.353-20.946 20.363-32.482 47.372-32.482 76.049v116h224v-116zM352 288h-96v128c18.868-1.633 41.422-6.904 60.204-15.878 11.805-5.641 20.795-12.391 26.721-20.063 6.105-7.907 9.075-17.086 9.075-28.059v-64z" />
<glyph unicode="&#xe11d;" glyph-name="mouse3" d="M239.999 448c-47.999 0-143.999-18.68-143.999-96v-212c0-77.318 64.471-140 143.999-140s144.001 62.682 144.001 140v212c0 77.32-96 96-144.001 96zM128 352c0 10.974 2.969 20.152 9.076 28.060 5.924 7.672 14.915 14.422 26.72 20.063 18.782 8.975 41.336 14.245 60.204 15.877v-128h-96v64zM352 140c0-28.677-11.537-55.686-32.484-76.051-10.287-10.002-22.277-17.857-35.635-23.353-13.873-5.704-28.637-8.597-43.882-8.597-15.244 0-30.008 2.893-43.881 8.598-13.357 5.494-25.349 13.351-35.636 23.353-20.946 20.364-32.482 47.374-32.482 76.051v115.999h224v-116z" />
<glyph unicode="&#xe120;" glyph-name="screen" d="M0 448v-320h512v320h-512zM480 160h-448v256h448v-256zM336 96h-160l-16-64-32-32h256l-32 32z" />
<glyph unicode="&#xe125;" glyph-name="mobile" d="M368 480h-224c-26.4 0-48-21.6-48-48v-416c0-26.4 21.6-48 48-48h224c26.4 0 48 21.6 48 48v416c0 26.4-21.6 48-48 48zM192 456h128v-16h-128v16zM256 0c-17.673 0-32 14.327-32 32s14.327 32 32 32 32-14.327 32-32-14.327-32-32-32zM384 96h-256v320h256v-320z" />
<glyph unicode="&#xe126;" glyph-name="mobile2" d="M384 480h-288c-17.6 0-32-14.399-32-32v-448c0-17.6 14.399-32 32-32h288c17.6 0 32 14.4 32 32v448c0 17.601-14.4 32-32 32zM240-8.891c-13.746 0-24.891 11.145-24.891 24.891s11.145 24.891 24.891 24.891 24.891-11.145 24.891-24.891-11.145-24.891-24.891-24.891zM384 64h-288v352h288v-352z" />
<glyph unicode="&#xe138;" glyph-name="database" d="M256 480c-141.386 0-256-35.816-256-80v-64c0-44.183 114.611-80 256-80 141.385 0 256 35.817 256 80v64c0 44.184-114.615 80-256 80zM255.193 224c-114.627 0-211.253 23.543-243.873 56-7.615-7.577-11.32-15.639-11.32-24v-64c0-44.184 114.611-80 256-80 141.385 0 256 35.816 256 80v64c0 8.361-4.516 16.423-12.131 24-32.619-32.457-130.049-56-244.676-56zM255.193 80c-114.627 0-211.253 23.544-243.873 56-7.615-7.576-11.32-15.639-11.32-24v-64c0-44.183 114.611-80 256-80 141.385 0 256 35.817 256 80v64c0 8.361-4.516 16.424-12.131 24-32.619-32.456-130.049-56-244.676-56z" />
<glyph unicode="&#xe145;" glyph-name="align-left" d="M448 160h-288v-64h288v64zM480 192v0-128h-352v128h352zM32 480h64v-512h-64zM128 384h224v-128h-224z" />
<glyph unicode="&#xe146;" glyph-name="align-center-horizontal" d="M448 192h-160v64h96v128h-96v96h-64v-96h-96v-128h96v-64h-160v-128h160v-96h64v96h160v128zM416 96h-320v64h320v-64z" />
<glyph unicode="&#xe147;" glyph-name="align-right" d="M64 160h288v-64h-288v64zM32 192v0-128h352v128h-352zM480 480h-64v-512h64zM384 384h-224v-128h224z" />
<glyph unicode="&#xe148;" glyph-name="align-top" d="M192 32v288h-64v-288h64zM224 0v0h-128v352h128v-352zM512 448v-64h-512v64zM416 352v-224h-128v224z" />
<glyph unicode="&#xe149;" glyph-name="align-center-vertical" d="M224 32v160h64v-96h128v96h96v64h-96v96h-128v-96h-64v160h-128v-160h-96v-64h96v-160h128zM128 64v320h64v-320h-64z" />
<glyph unicode="&#xe14a;" glyph-name="align-bottom" d="M192 416v-288h-64v288h64zM224 448v0h-128v-352h128v352zM512 0v64h-512v-64zM416 96v224h-128v-224z" />
<glyph unicode="&#xe14b;" glyph-name="undo" d="M380.931-32c56.863 103.016 66.444 260.153-156.931 254.912v-126.912l-192 192 192 192v-124.186c267.481 6.971 297.285-236.107 156.931-387.814z" />
<glyph unicode="&#xe14c;" glyph-name="redo" d="M288 355.814v124.186l192-192-192-192v126.912c-223.375 5.241-213.794-151.896-156.93-254.912-140.356 151.707-110.55 394.785 156.93 387.814z" />
<glyph unicode="&#xe14d;" glyph-name="forward" d="M131.070 480c-56.864-103.016-66.445-260.152 156.93-254.912v126.912l192-192-192-192v124.186c-267.48-6.971-297.286 236.107-156.93 387.814z" />
<glyph unicode="&#xe14e;" glyph-name="reply" d="M224 92.186v-124.186l-192 192 192 192v-126.912c223.375-5.24 213.794 151.896 156.931 254.912 140.355-151.707 110.55-394.785-156.931-387.814z" />
<glyph unicode="&#xe164;" glyph-name="bubble" d="M464 448c26.4 0 48-21.6 48-48v-256c0-26.4-21.6-48-48-48h-182.4l-153.6-128v128h-80c-26.4 0-48 21.6-48 48v256c0 26.4 21.6 48 48 48h416z" />
<glyph unicode="&#xe165;" glyph-name="bubble-dots" d="M464 448h-416c-26.4 0-48-21.6-48-48v-256c0-26.4 21.6-48 48-48h80v-128l153.6 128h182.4c26.4 0 48 21.6 48 48v256c0 26.4-21.6 48-48 48zM192 224h-64v64h64v-64zM288 224h-64v64h64v-64zM384 224h-64v64h64v-64z" />
<glyph unicode="&#xe166;" glyph-name="bubble2" d="M464 448h-416c-26.4 0-48-21.6-48-48v-256c0-26.4 21.6-48 48-48h80v-128l153.6 128h182.4c26.4 0 48 21.6 48 48v256c0 26.4-21.6 48-48 48zM224 192h-128v32h128v-32zM352 256h-256v32h256v-32zM416 320h-320v32h320v-32z" />
<glyph unicode="&#xe168;" glyph-name="bubble-dots2" d="M128 288h64v-64h-64zM224 288h64v-64h-64zM320 288h64v-64h-64zM464 448h-416c-26.4 0-48-21.6-48-48v-256c0-26.4 21.6-48 48-48h80v-128l153.6 128h182.4c26.4 0 48 21.6 48 48v256c0 26.4-21.6 48-48 48zM448 160h-189.571l-98.429-87.357v87.357h-96v224h384v-224z" />
<glyph unicode="&#xe18e;" glyph-name="user" d="M424-32h-336c-13.255 0-24 10.745-24 24 0 34.431 14.534 76.102 38.879 111.471 20.346 29.559 45.342 51.81 72.339 64.805-11.899 10.822-22.147 24.013-30.254 39.061-13 24.131-19.873 52.024-19.873 80.664 0 39.803 13.102 77.411 36.893 105.895 24.832 29.73 58.221 46.104 94.016 46.104s69.184-16.374 94.017-46.105c23.79-28.484 36.893-66.091 36.893-105.895 0-28.64-6.872-56.533-19.872-80.664-8.107-15.048-18.355-28.239-30.255-39.061 26.997-12.995 51.993-35.246 72.339-64.805 24.344-35.368 38.878-77.039 38.878-111.47 0-13.255-10.745-24-24-24zM115.037 16h281.926c-4.613 19.67-14.26 41.192-27.381 60.255-20.727 30.113-46.588 49.811-72.819 55.463-11.053 2.382-18.944 12.155-18.944 23.462v17.146c0 8.63 4.633 16.595 12.135 20.861 29.739 16.916 48.956 54.133 48.956 94.813 0 57.346-37.192 104-82.909 104s-82.909-46.654-82.909-104c0-40.68 19.217-77.896 48.957-94.813 7.501-4.267 12.134-12.231 12.134-20.861v-17.146c0-11.307-7.892-21.080-18.944-23.462-26.231-5.652-52.092-25.35-72.82-55.463-13.123-19.063-22.768-40.585-27.382-60.255z" />
<glyph unicode="&#xe18f;" glyph-name="users" d="M488-32h-336c-13.255 0-24 10.745-24 24 0 34.431 14.534 76.102 38.879 111.471 20.346 29.559 45.342 51.81 72.339 64.805-11.899 10.822-22.147 24.013-30.254 39.061-13 24.131-19.873 52.024-19.873 80.664 0 39.803 13.102 77.411 36.893 105.895 24.832 29.73 58.221 46.104 94.016 46.104s69.184-16.374 94.017-46.105c23.79-28.484 36.893-66.091 36.893-105.895 0-28.64-6.872-56.533-19.872-80.664-8.107-15.048-18.355-28.239-30.255-39.061 26.997-12.995 51.993-35.246 72.339-64.805 24.344-35.368 38.878-77.039 38.878-111.47 0-13.255-10.745-24-24-24zM179.037 16h281.926c-4.613 19.67-14.26 41.192-27.381 60.255-20.727 30.113-46.588 49.811-72.819 55.463-11.053 2.382-18.944 12.155-18.944 23.462v17.146c0 8.63 4.633 16.595 12.135 20.861 29.739 16.916 48.956 54.133 48.956 94.813 0 57.346-37.192 104-82.909 104s-82.909-46.654-82.909-104c0-40.68 19.217-77.896 48.957-94.813 7.501-4.267 12.134-12.231 12.134-20.861v-17.146c0-11.307-7.892-21.080-18.944-23.462-26.231-5.652-52.092-25.35-72.82-55.463-13.123-19.063-22.768-40.585-27.382-60.255zM98.557 48h-47.52c4.614 19.67 14.259 41.192 27.38 60.255 20.728 30.113 46.589 49.811 72.82 55.463 11.053 2.382 18.944 12.155 18.944 23.462v17.146c0 8.63-4.633 16.595-12.134 20.861-29.74 16.917-48.957 54.133-48.957 94.813 0 57.346 37.192 104 82.909 104 3.127 0 6.213-0.226 9.251-0.651 13.179 14.667 28.117 26.587 44.321 35.502-16.596 8.616-34.75 13.149-53.571 13.149-35.795 0-69.184-16.374-94.017-46.105-23.79-28.484-36.892-66.092-36.892-105.895 0-28.64 6.872-56.533 19.873-80.664 8.107-15.048 18.355-28.238 30.254-39.061-26.997-12.995-51.993-35.246-72.339-64.805-24.345-35.368-38.879-77.039-38.879-111.47 0-13.255 10.745-24 24-24h66.193c0.738 15.513 3.599 31.706 8.364 48z" />
<glyph unicode="&#xe190;" glyph-name="user-plus" d="M384 192h-32v-64h-64v-32h64v-64h32v64h64v32h-64zM206.92 16h-155.883c4.614 19.67 14.259 41.192 27.38 60.255 20.728 30.113 46.589 49.811 72.82 55.463 11.053 2.382 18.944 12.155 18.944 23.462v17.146c0 8.63-4.633 16.595-12.134 20.861-29.74 16.917-48.957 54.133-48.957 94.813 0 57.346 37.193 104 82.909 104s82.909-46.654 82.909-104c0-4.599-0.258-9.15-0.737-13.636 15.016 8.696 31.351 15.361 48.629 19.638-1.249 37.569-14.193 72.845-36.784 99.893-24.832 29.731-58.221 46.105-94.016 46.105s-69.184-16.374-94.017-46.105c-23.79-28.484-36.892-66.092-36.892-105.895 0-28.64 6.872-56.533 19.873-80.664 8.107-15.048 18.355-28.238 30.254-39.061-26.997-12.995-51.993-35.246-72.339-64.805-24.345-35.368-38.879-77.039-38.879-111.47 0-13.255 10.745-24 24-24h223.923c-16.219 13.54-30.113 29.768-41.003 48zM368 218c58.448 0 106-47.552 106-106s-47.552-106-106-106-106 47.552-106 106 47.552 106 106 106zM368 256c-79.529 0-144-64.471-144-144s64.471-144 144-144 144 64.471 144 144-64.471 144-144 144v0z" />
<glyph unicode="&#xe192;" glyph-name="user-cancel" d="M206.92 16h-155.883c4.614 19.67 14.259 41.192 27.38 60.255 20.728 30.113 46.589 49.811 72.82 55.463 11.053 2.382 18.944 12.155 18.944 23.462v17.146c0 8.63-4.633 16.595-12.134 20.861-29.74 16.917-48.957 54.133-48.957 94.813 0 57.346 37.193 104 82.909 104s82.909-46.654 82.909-104c0-4.599-0.258-9.15-0.737-13.636 15.016 8.696 31.351 15.361 48.629 19.638-1.249 37.569-14.193 72.845-36.784 99.893-24.832 29.731-58.221 46.105-94.016 46.105s-69.184-16.374-94.017-46.105c-23.79-28.484-36.892-66.092-36.892-105.895 0-28.64 6.872-56.533 19.873-80.664 8.107-15.048 18.355-28.238 30.254-39.061-26.997-12.995-51.993-35.246-72.339-64.805-24.345-35.368-38.879-77.039-38.879-111.47 0-13.255 10.745-24 24-24h223.923c-16.219 13.54-30.113 29.768-41.003 48zM368 256c-79.529 0-144-64.471-144-144s64.471-144 144-144 144 64.471 144 144-64.471 144-144 144zM428.273 199.144l-60.273-60.274-60.273 60.273c17.125 11.882 37.898 18.857 60.273 18.857s43.148-6.975 60.273-18.856zM262 112c0 22.375 6.975 43.148 18.856 60.273l60.274-60.273-60.273-60.273c-11.882 17.125-18.857 37.898-18.857 60.273zM307.727 24.856l60.273 60.274 60.273-60.273c-17.125-11.882-37.898-18.857-60.273-18.857s-43.148 6.975-60.273 18.856zM455.144 51.727l-60.274 60.273 60.273 60.273c11.882-17.125 18.857-37.898 18.857-60.273s-6.975-43.148-18.856-60.273z" />
<glyph unicode="&#xe193;" glyph-name="user-block" d="M206.92 16h-155.883c4.614 19.67 14.259 41.192 27.38 60.255 20.728 30.113 46.589 49.811 72.82 55.463 11.053 2.382 18.944 12.155 18.944 23.462v17.146c0 8.63-4.633 16.595-12.134 20.861-29.74 16.917-48.957 54.133-48.957 94.813 0 57.346 37.193 104 82.909 104s82.909-46.654 82.909-104c0-4.599-0.258-9.15-0.737-13.636 15.016 8.696 31.351 15.361 48.629 19.638-1.249 37.569-14.193 72.845-36.784 99.893-24.832 29.731-58.221 46.105-94.016 46.105s-69.184-16.374-94.017-46.105c-23.79-28.484-36.892-66.092-36.892-105.895 0-28.64 6.872-56.533 19.873-80.664 8.107-15.048 18.355-28.238 30.254-39.061-26.997-12.995-51.993-35.246-72.339-64.805-24.345-35.368-38.879-77.039-38.879-111.47 0-13.255 10.745-24 24-24h223.923c-16.219 13.54-30.113 29.768-41.003 48zM368 256c-79.529 0-144-64.471-144-144s64.471-144 144-144 144 64.471 144 144-64.471 144-144 144zM262 112c0 58.448 47.552 106 106 106 22.375 0 43.148-6.975 60.273-18.856l-147.417-147.417c-11.881 17.125-18.856 37.898-18.856 60.273zM368 6c-22.375 0-43.148 6.975-60.273 18.856l147.417 147.417c11.881-17.125 18.856-37.898 18.856-60.273 0-58.448-47.552-106-106-106z" />
<glyph unicode="&#xe1a3;" glyph-name="busy" d="M364.496 224c68.877 43.667 115.504 127.604 115.504 224 0 10.838-0.596 21.517-1.739 32h-444.521c-1.145-10.484-1.74-21.163-1.74-32 0-96.396 46.627-180.333 115.503-224-68.876-43.667-115.503-127.604-115.503-224 0-10.838 0.595-21.517 1.739-32h444.521c1.144 10.483 1.739 21.162 1.739 32 0.001 96.396-46.626 180.333-115.503 224zM80 0c0 93.456 40.081 172.707 112 198.854v50.293c-71.919 26.145-112 105.396-112 198.853v0h352c0-93.457-40.081-172.708-112-198.853v-50.293c71.919-26.147 112-105.398 112-198.854h-352zM309.813 145.203c-35.827 20.322-37.804 46.684-37.813 62.683v32.114c0 15.997 1.902 42.457 37.872 62.832 19.252 11.182 35.904 28.174 48.524 49.168h-204.791c12.633-21.016 29.306-38.021 48.583-49.203 35.827-20.322 37.803-46.683 37.813-62.683v-32.114c0-15.996-1.902-42.457-37.872-62.832-36.311-21.090-63.369-62.842-71.545-113.168h250.835c-8.182 50.354-35.265 92.124-71.606 113.203z" />
<glyph unicode="&#xe1b5;" glyph-name="binoculars" d="M480 256h-32l-32 160h-40l8 64h-96l8-64h-80l8 64h-96l8-64h-40l-32-160h-32l-32-256v-32h192v288h32v32h64v-32h32v-288h192v32z" />
<glyph unicode="&#xe1b7;" glyph-name="search" d="M449.077 10.754l-114.54 168.305c65.459 51.835 83.963 145.677 39.835 219.126-47.927 79.774-151.813 105.672-231.579 57.755-79.765-47.933-105.662-151.816-57.739-231.583 43.213-71.942 131.962-100.047 207.479-69.717l95.143-180.783c2.95-5.611 9.802-7.523 15.229-4.273l42.784 25.72c5.437 3.263 6.964 10.214 3.388 15.45zM288.781 212.968c-54.211-32.563-124.808-14.959-157.375 39.253-32.565 54.197-14.952 124.794 39.253 157.36 54.189 32.57 124.787 14.961 157.351-39.245 32.569-54.198 14.968-124.811-39.229-157.368z" />
<glyph unicode="&#xe1b8;" glyph-name="zoomin" d="M192 384h-32v-64h-64v-32h64v-64h32v64h64v32h-64zM318.771 201.076c20.903 28.945 33.229 64.492 33.229 102.924 0 97.202-78.798 176-176 176s-176-78.798-176-176 78.798-176 176-176c38.432 0 73.979 12.326 102.924 33.229l169.076-193.229 64 64-193.229 169.076zM176 176c-70.692 0-128 57.308-128 128s57.308 128 128 128 128-57.308 128-128-57.307-128-128-128z" />
<glyph unicode="&#xe1b9;" glyph-name="zoomout" d="M96 320h160v-32h-160zM318.771 201.076c20.903 28.945 33.229 64.492 33.229 102.924 0 97.202-78.798 176-176 176s-176-78.798-176-176 78.798-176 176-176c38.432 0 73.979 12.326 102.924 33.229l169.076-193.229 64 64-193.229 169.076zM176 176c-70.692 0-128 57.308-128 128s57.308 128 128 128 128-57.308 128-128-57.307-128-128-128z" />
<glyph unicode="&#xe1bf;" glyph-name="expand" d="M512 480v-192l-69.13 69.13-106-106-53.74 53.74 106 106-69.13 69.13zM122.87 410.87l106-106-53.74-53.74-106 106-69.13-69.13v192h192zM442.87 90.87l69.13 69.13v-192h-192l69.13 69.13-106 106 53.74 53.74zM228.87 143.13l-106-106 69.13-69.13h-192v192l69.13-69.13 106 106z" />
<glyph unicode="&#xe1c0;" glyph-name="contract" d="M32 192h192v-192l-69.13 69.13-101-101-53.74 53.74 101 101zM410.87 122.87l101-101-53.74-53.74-101 101-69.13-69.13v192h192zM480 256h-192v192l69.13-69.13 101 101 53.74-53.74-101-101zM154.87 378.87l69.13 69.13v-192h-192l69.13 69.13-101 101 53.74 53.74z" />
<glyph unicode="&#xe1c8;" glyph-name="expand2" d="M512 480v-208l-80 80-96-96-48 48 96 96-80 80zM224 144l-96-96 80-80h-208v208l80-80 96 96z" />
<glyph unicode="&#xe1c9;" glyph-name="contract2" d="M224 192v-208l-80 80-96-96-48 48 96 96-80 80zM512 432l-96-96 80-80h-208v208l80-80 96 96z" />
<glyph unicode="&#xe1ca;" glyph-name="key" d="M352 480c-88.365 0-160-71.634-160-160 0-10.013 0.929-19.808 2.688-29.312l-194.688-194.688v-96c0-17.673 14.327-32 32-32h32v32h64v64h64v64h64l41.521 41.521c17.005-6.158 35.348-9.521 54.479-9.521 88.365 0 160 71.634 160 160s-71.635 160-160 160zM399.937 319.937c-26.51 0-48 21.49-48 48s21.49 48 48 48 48-21.49 48-48-21.49-48-48-48z" />
<glyph unicode="&#xe1cf;" glyph-name="keyhole" d="M384 352c0 70.692-57.307 128-128 128s-128-57.308-128-128c0-48.913 27.439-91.411 67.76-112.958l-67.76-271.042h256l-67.76 271.042c40.321 21.547 67.76 64.046 67.76 112.958z" />
<glyph unicode="&#xe1d3;" glyph-name="lock" d="M296 256h-8v96c0 52.935-43.065 96-96 96h-64c-52.935 0-96-43.065-96-96v-96h-8c-13.2 0-24-10.8-24-24v-240c0-13.2 10.8-24 24-24h272c13.2 0 24 10.8 24 24v240c0 13.2-10.8 24-24 24zM96 352c0 17.645 14.355 32 32 32h64c17.645 0 32-14.355 32-32v-96h-128v96z" />
<glyph unicode="&#xe1d4;" glyph-name="unlocked" d="M384 448c52.935 0 96-43.065 96-96v-96h-64v96c0 17.645-14.355 32-32 32h-64c-17.645 0-32-14.355-32-32v-96h8c13.2 0 24-10.8 24-24v-240c0-13.2-10.8-24-24-24h-272c-13.2 0-24 10.8-24 24v240c0 13.2 10.8 24 24 24h200v96c0 52.935 43.065 96 96 96h64z" />
<glyph unicode="&#xe1db;" glyph-name="settings" d="M224 416v8c0 13.2-10.8 24-24 24h-80c-13.2 0-24-10.8-24-24v-8h-96v-64h96v-8c0-13.2 10.8-24 24-24h80c13.2 0 24 10.8 24 24v8h288v64h-288zM128 352v64h64v-64h-64zM416 264c0 13.2-10.8 24-24 24h-80c-13.2 0-24-10.8-24-24v-8h-288v-64h288v-8c0-13.2 10.8-24 24-24h80c13.2 0 24 10.8 24 24v8h96v64h-96v8zM320 192v64h64v-64h-64zM224 104c0 13.2-10.8 24-24 24h-80c-13.2 0-24-10.8-24-24v-8h-96v-64h96v-8c0-13.2 10.8-24 24-24h80c13.2 0 24 10.8 24 24v8h288v64h-288v8zM128 32v64h64v-64h-64z" />
<glyph unicode="&#xe1dc;" glyph-name="equalizer" d="M448 256h8c13.2 0 24 10.8 24 24v80c0 13.2-10.8 24-24 24h-8v96h-64v-96h-8c-13.2 0-24-10.8-24-24v-80c0-13.2 10.8-24 24-24h8v-288h64v288zM384 352h64v-64h-64v64zM296 64c13.2 0 24 10.8 24 24v80c0 13.2-10.8 24-24 24h-8v288h-64v-288h-8c-13.2 0-24-10.8-24-24v-80c0-13.2 10.8-24 24-24h8v-96h64v96h8zM224 160h64v-64h-64v64zM136 256c13.2 0 24 10.8 24 24v80c0 13.2-10.8 24-24 24h-8v96h-64v-96h-8c-13.2 0-24-10.8-24-24v-80c0-13.2 10.8-24 24-24h8v-288h64v288h8zM64 352h64v-64h-64v64z" />
<glyph unicode="&#xe1e1;" glyph-name="cog" d="M512 175.953v96.094l-73.387 12.231c-2.979 9.066-6.611 17.834-10.847 26.25l43.227 60.517-67.948 67.949-60.413-43.152c-8.455 4.277-17.269 7.944-26.384 10.951l-12.201 73.207h-96.094l-12.201-73.208c-9.115-3.007-17.929-6.674-26.383-10.951l-60.414 43.152-67.949-67.949 43.227-60.518c-4.235-8.415-7.867-17.183-10.846-26.249l-73.387-12.23v-96.094l73.559-12.26c2.98-8.984 6.605-17.674 10.821-26.015l-43.374-60.724 67.949-67.948 60.827 43.447c8.301-4.175 16.945-7.764 25.882-10.717l12.289-73.736h96.094l12.289 73.737c8.937 2.953 17.581 6.542 25.883 10.716l60.826-43.446 67.948 67.948-43.372 60.723c4.216 8.341 7.839 17.031 10.82 26.016l73.559 12.259zM256 160c-35.346 0-64 28.653-64 64s28.654 64 64 64c35.347 0 64-28.654 64-64s-28.653-64-64-64z" />
<glyph unicode="&#xe1e2;" glyph-name="cog2" d="M316.576-32h-121.153l-12.202 73.212c-1.679 0.669-3.35 1.36-5.010 2.075l-60.396-43.141-85.669 85.667 43.058 60.281c-0.738 1.707-1.453 3.425-2.142 5.152l-73.062 12.179v121.152l72.868 12.144c0.711 1.795 1.45 3.582 2.213 5.355l-42.935 60.108 85.669 85.669 59.991-42.851c1.821 0.788 3.654 1.549 5.499 2.282l12.118 72.716h121.153l12.119-72.715c1.845-0.733 3.679-1.494 5.499-2.282l59.991 42.851 85.668-85.669-42.936-60.107c0.765-1.774 1.503-3.561 2.214-5.357l72.869-12.144v-121.152l-73.062-12.178c-0.689-1.728-1.403-3.445-2.142-5.151l43.058-60.281-85.668-85.668-60.397 43.141c-1.661-0.714-3.331-1.405-5.011-2.074l-12.202-73.214zM227.615 6h56.77l10.617 63.705 10.894 3.6c7.31 2.416 14.506 5.396 21.389 8.856l10.246 5.151 52.548-37.533 40.143 40.143-37.479 52.472 5.184 10.26c3.493 6.913 6.502 14.146 8.941 21.499l3.608 10.874 63.524 10.588v56.771l-63.402 10.567-3.589 10.92c-2.438 7.423-5.454 14.721-8.963 21.69l-5.158 10.25 37.333 52.265-40.143 40.144-52.191-37.279-10.262 5.192c-6.998 3.541-14.333 6.584-21.801 9.048l-10.902 3.596-10.537 63.221h-56.77l-10.537-63.222-10.902-3.596c-7.465-2.463-14.799-5.507-21.799-9.049l-10.262-5.192-52.192 37.28-40.144-40.144 37.333-52.266-5.158-10.249c-3.508-6.971-6.523-14.268-8.962-21.69l-3.588-10.921-63.404-10.566v-56.77l63.526-10.589 3.607-10.876c2.437-7.346 5.445-14.578 8.941-21.496l5.185-10.26-37.481-52.474 40.144-40.142 52.549 37.534 10.247-5.154c6.877-3.459 14.073-6.438 21.385-8.855l10.894-3.6 10.618-63.703zM272 288h-32c-26.4 0-48-21.6-48-48v-32c0-26.4 21.6-48 48-48h32c26.4 0 48 21.6 48 48v32c0 26.4-21.6 48-48 48zM288 208c0-8.8-7.2-16-16-16h-32c-8.8 0-16 7.2-16 16v32c0 8.8 7.2 16 16 16h32c8.8 0 16-7.2 16-16v-32z" />
<glyph unicode="&#xe1f8;" glyph-name="pie" d="M224 416c-123.712 0-224-100.288-224-224s100.288-224 224-224 224 100.288 224 224h-224v224zM288 480v-224h224c0 123.712-100.288 224-224 224z" />
<glyph unicode="&#xe1fe;" glyph-name="stats" d="M64 32h448v-64h-512v512h64zM144 64c-26.51 0-48 21.49-48 48s21.49 48 48 48c1.414 0 2.811-0.074 4.194-0.193l51.596 85.993c-4.92 7.535-7.79 16.531-7.79 26.201 0 26.51 21.49 48 48 48s48-21.49 48-48c0-9.671-2.87-18.666-7.79-26.201l51.596-85.993c1.383 0.119 2.78 0.193 4.194 0.193 1.068 0 2.124-0.047 3.175-0.115l85.178 149.061c-5.268 7.704-8.353 17.018-8.353 27.055 0 26.51 21.49 48 48 48s48-21.49 48-48c0-26.51-21.49-48-48-48-1.070 0-2.124 0.047-3.175 0.116l-85.178-149.062c5.268-7.703 8.353-17.018 8.353-27.055 0-26.51-21.49-48-48-48s-48 21.49-48 48c0 9.67 2.87 18.666 7.789 26.201l-51.595 85.992c-1.383-0.119-2.78-0.193-4.194-0.193s-2.811 0.073-4.194 0.193l-51.596-85.993c4.92-7.534 7.79-16.53 7.79-26.2 0-26.51-21.49-48-48-48z" />
<glyph unicode="&#xe207;" glyph-name="stats-up" d="M32 96h96v-128h-96zM160 160h96v-192h-96zM288 192h96v-224h-96zM416 288h96v-320h-96zM512 480v-144l-55.029 55.029-168.971-168.97-96 96-126.059-126.059h-33.941v33.941l160 160 96-96 135.029 135.030-55.029 55.029z" />
<glyph unicode="&#xe216;" glyph-name="podium" d="M352 256v128h-192v-96h-160v-256h512v224h-160zM128 128h-64v-32h64v-32h-96v96h64v32h-64v32h96v-96zM288 160h-32v128h-32v32h64v-160zM480 64h-96v32h64v32h-64v32h64v32h-64v32h96v-160z" />
<glyph unicode="&#xe218;" glyph-name="medal" d="M448 272c0 106.039-85.961 192-192 192s-192-85.961-192-192c0-62.271 29.654-117.609 75.603-152.689l-75.603-151.311 96 64 32-64 44.823 112.951c6.308-0.626 12.704-0.951 19.177-0.951s12.869 0.325 19.178 0.951l44.822-112.951 32 64 96-64-75.603 151.311c45.949 35.080 75.603 90.418 75.603 152.689zM346.51 181.49c-24.176-24.176-56.321-37.49-90.51-37.49-34.19 0-66.334 13.314-90.51 37.49s-37.49 56.32-37.49 90.51 13.314 66.333 37.49 90.51c24.177 24.176 56.32 37.49 90.51 37.49s66.334-13.314 90.51-37.49 37.49-56.32 37.49-90.51-13.314-66.334-37.49-90.51z" />
<glyph unicode="&#xe219;" glyph-name="medal2" d="M448 272c0 106.039-85.961 192-192 192s-192-85.961-192-192c0-62.271 29.654-117.609 75.603-152.689l-75.603-151.311 96 64 32-64 44.823 112.951c6.308-0.626 12.704-0.951 19.177-0.951s12.869 0.325 19.178 0.951l44.822-112.951 32 64 96-64-75.603 151.311c45.949 35.080 75.603 90.418 75.603 152.689zM346.51 181.49c-24.176-24.176-56.321-37.49-90.51-37.49-34.19 0-66.334 13.314-90.51 37.49s-37.49 56.32-37.49 90.51 13.314 66.333 37.49 90.51c24.177 24.176 56.32 37.49 90.51 37.49s66.334-13.314 90.51-37.49 37.49-56.32 37.49-90.51-13.314-66.334-37.49-90.51zM288 224v128h-64v-32h32v-96h-32v-32h96v32z" />
<glyph unicode="&#xe21a;" glyph-name="medal3" d="M448 272c0 106.039-85.961 192-192 192s-192-85.961-192-192c0-62.271 29.654-117.609 75.603-152.689l-75.603-151.311 96 64 32-64 44.823 112.951c6.308-0.626 12.704-0.951 19.177-0.951s12.869 0.325 19.178 0.951l44.822-112.951 32 64 96-64-75.603 151.311c45.949 35.080 75.603 90.418 75.603 152.689zM346.51 181.49c-24.176-24.176-56.321-37.49-90.51-37.49-34.19 0-66.334 13.314-90.51 37.49s-37.49 56.32-37.49 90.51 13.314 66.333 37.49 90.51c24.177 24.176 56.32 37.49 90.51 37.49s66.334-13.314 90.51-37.49 37.49-56.32 37.49-90.51-13.314-66.334-37.49-90.51zM192 320h96v-32h-96v-96h128v32h-96v32h96v96h-128z" />
<glyph unicode="&#xe21b;" glyph-name="medal4" d="M448 272c0 106.039-85.961 192-192 192s-192-85.961-192-192c0-62.271 29.654-117.609 75.603-152.689l-75.603-151.311 96 64 32-64 44.823 112.951c6.308-0.626 12.704-0.951 19.177-0.951s12.869 0.325 19.178 0.951l44.822-112.951 32 64 96-64-75.603 151.311c45.949 35.080 75.603 90.418 75.603 152.689zM346.51 181.49c-24.176-24.176-56.321-37.49-90.51-37.49-34.19 0-66.334 13.314-90.51 37.49s-37.49 56.32-37.49 90.51 13.314 66.333 37.49 90.51c24.177 24.176 56.32 37.49 90.51 37.49s66.334-13.314 90.51-37.49 37.49-56.32 37.49-90.51-13.314-66.334-37.49-90.51zM192 320h96v-32h-96v-32h96v-32h-96v-32h128v160h-128z" />
<glyph unicode="&#xe21e;" glyph-name="trophy" d="M416 384v64h-320v-64h-96v-64c0-53.019 42.979-96 96-96 10.038 0 19.715 1.543 28.81 4.401 23.087-33.004 58.304-56.898 99.19-65.198v-99.203h-32c-35.347 0-64-28.653-64-64h256c0 35.347-28.653 64-64 64h-32v99.203c40.886 8.3 76.103 32.193 99.19 65.198 9.095-2.858 18.772-4.401 28.81-4.401 53.021 0 96 42.981 96 96v64h-96zM96 262c-31.981 0-58 26.019-58 58v32h58v-32c0-20.093 3.715-39.316 10.477-57.034-3.401-0.623-6.899-0.966-10.477-0.966zM474 320c0-31.981-26.019-58-58-58-3.578 0-7.076 0.343-10.477 0.966 6.762 17.718 10.477 36.941 10.477 57.034v32h58v-32z" />
<glyph unicode="&#xe226;" glyph-name="mug" d="M416 320h-32v48c0 44.183-85.961 80-192 80s-192-35.817-192-80v-288c0-44.183 85.961-80 192-80s192 35.817 192 80v48h32c52.8 0 96 43.2 96 96s-43.2 96-96 96zM88.028 385.199c28.971 9.545 65.895 14.801 103.972 14.801s75.002-5.256 103.972-14.801c18.497-6.094 29.704-12.623 35.705-17.199-6.001-4.576-17.208-11.104-35.705-17.199-28.97-9.545-65.895-14.801-103.972-14.801s-75.001 5.256-103.972 14.801c-18.497 6.095-29.704 12.623-35.705 17.199 6.001 4.576 17.208 11.104 35.705 17.199zM452.182 195.818c-4.414-4.414-13.945-11.818-28.182-11.818h-40v80h40c14.237 0 23.768-7.405 28.182-11.819s11.818-13.944 11.818-28.181-7.404-23.768-11.818-28.182z" />
<glyph unicode="&#xe234;" glyph-name="rocket" d="M352 448l-160-160h-96l-96-128c0 0 101.708 28.326 161.033 15.042l-161.033-207.042 210.951 164.072c29.419-67.327-18.951-164.072-18.951-164.072l128 96v96l160 160 32 160-160-32z" />
<glyph unicode="&#xe24d;" glyph-name="lamp" d="M256.003 480c-85.374 0-154.661-68.339-154.661-152.54 0-42.102 25.089-86.239 53.788-133.976s6.022-100.49 103.695-99.073c93.617 1.376 69.35 44.274 96.629 92.011 27.289 47.736 55.205 98.938 55.205 141.039 0.001 84.201-69.288 152.539-154.656 152.539zM191.076 80.777v-40.615c19.95-6.488 41.896-10.088 64.927-10.088 23.029 0 44.97 3.6 64.921 10.086v37.525c-11.158-10.273-29.447-13.1-62.1-13.645-36.219-0.597-55.871 3.808-67.748 16.737zM191.753 14.944c2.507-13.705 13.3-46.944 64.25-46.944s61.742 33.239 64.25 46.944c-28.826-8.815-41.977-9.291-64.25-9.291-22.275 0-35.426 0.476-64.25 9.291z" />
<glyph unicode="&#xe24e;" glyph-name="lamp2" d="M191.076 80.777c11.877-12.929 31.529-17.334 67.748-16.738 32.653 0.545 50.942 3.373 62.1 13.645v-37.524c-19.951-6.486-41.892-10.086-64.921-10.086-23.031 0-44.977 3.6-64.927 10.088v40.615zM191.753 14.944c28.824-8.815 41.975-9.291 64.25-9.291 22.272 0 35.424 0.476 64.25 9.291-2.508-13.705-13.301-46.944-64.25-46.944s-61.743 33.239-64.25 46.944zM256.003 442c-64.327 0-116.661-51.382-116.661-114.54 0-31.407 21.899-70.389 48.356-114.396 10.558-17.561 15.621-34.915 19.689-48.859 3.154-10.813 6.133-21.026 10.007-24.645 1.801-1.684 9.84-7.177 37.633-7.177 1.065 0 2.145 0.007 3.246 0.024 30.817 0.453 38.157 6.045 38.892 6.681 2.364 2.045 4.922 11.265 7.18 19.4 3.625 13.064 8.137 29.324 18.116 46.788 19.991 34.971 50.198 87.81 50.198 122.185 0 30.474-12.074 59.166-33.999 80.79-22.065 21.764-51.42 33.749-82.657 33.749zM256.003 480v0c85.368 0 154.657-68.338 154.656-152.54 0-42.101-27.916-93.303-55.205-141.039-27.279-47.737-3.012-90.635-96.629-92.011-1.288-0.018-2.552-0.028-3.798-0.028-93.283 0-71.575 51.994-99.897 99.102-28.699 47.737-53.788 91.874-53.788 133.976 0 84.201 69.287 152.54 154.661 152.54z" />
<glyph unicode="&#xe256;" glyph-name="remove" d="M64 0c0-17.673 14.327-32 32-32h320c17.674 0 32 14.327 32 32v352h-384v-352zM320 288h64v-256h-64v256zM224 288h64v-256h-64v256zM128 288h64v-256h-64v256zM448 448h-128v32h-128v-32h-128c-35.346 0-64-28.654-64-64h512c0 35.346-28.653 64-64 64z" />
<glyph unicode="&#xe25b;" glyph-name="airplane" d="M352 256l-192 192h-64l128-192c-41.455 0-82.064 0-112 0l-48 64h-64l56-112-56-112h64l48 64c29.936 0 70.545 0 112 0l-128-192h64l192 192c96 0 160 29.625 160 48s-64 48-160 48z" />
<glyph unicode="&#xe25c;" glyph-name="paperplane" d="M224 128l196.818-70.244 91.182 398.678zM160 150.046l352 306.388-512-253.231zM224 94.023v-126.023l92.876 92.876z" />
<glyph unicode="&#xe277;" glyph-name="accessibility" d="M160 16c-61.856 0-112 50.145-112 112 0 43.848 25.2 81.803 61.903 100.19l-21.47 42.938c-52.432-26.268-88.433-80.489-88.433-143.128 0-88.366 71.634-160 160-160s160 71.634 160 160h-48c0-61.855-50.144-112-112-112zM480 128l-32-32-109.257 109.255h-114.743v50.745h128v32h-128v64h-64v-192h160l128-128 64 64zM144 432c0 26.51 21.49 48 48 48s48-21.49 48-48c0-26.51-21.49-48-48-48s-48 21.49-48 48z" />
<glyph unicode="&#xe28d;" glyph-name="lightning" d="M192 480l-192-256h192l-128-256 448 320h-256l192 192z" />
<glyph unicode="&#xe290;" glyph-name="switch" d="M320 406.706v-67.979c18.103-7.902 34.75-19.204 49.137-33.59 30.221-30.22 46.863-70.4 46.863-113.137s-16.643-82.917-46.863-113.137c-30.22-30.22-70.399-46.863-113.137-46.863s-82.917 16.643-113.137 46.863c-30.22 30.22-46.863 70.4-46.863 113.137s16.643 82.917 46.863 113.137c14.387 14.387 31.034 25.689 49.137 33.591v67.978c-92.524-27.54-160-113.236-160-214.706 0-123.712 100.289-224 224-224s224 100.288 224 224c0 101.47-67.475 187.166-160 214.706zM224 480h64v-256h-64z" />
<glyph unicode="&#xe299;" glyph-name="list" d="M0 480h128v-128h-128zM192 448h320v-64h-320zM0 288h128v-128h-128zM192 256h320v-64h-320zM0 96h128v-128h-128zM192 64h320v-64h-320z" />
<glyph unicode="&#xe29a;" glyph-name="list2" d="M192 448h320v-64h-320v64zM192 256h320v-64h-320v64zM192 64h320v-64h-320v64zM0 416c0 35.346 28.654 64 64 64s64-28.654 64-64c0-35.346-28.654-64-64-64s-64 28.654-64 64zM0 224c0 35.346 28.654 64 64 64s64-28.654 64-64c0-35.346-28.654-64-64-64s-64 28.654-64 64zM0 32c0 35.346 28.654 64 64 64s64-28.654 64-64c0-35.346-28.654-64-64-64s-64 28.654-64 64z" />
<glyph unicode="&#xe29c;" glyph-name="numbered-list" d="M192 64h320v-64h-320zM192 256h320v-64h-320zM192 448h320v-64h-320zM96 480v-128h-32v96h-32v32zM64 217v-25h64v-32h-96v73l64 30v25h-64v32h96v-73zM128 128v-160h-96v32h64v32h-64v32h64v32h-64v32z" />
<glyph unicode="&#xe2ab;" glyph-name="circle-small" d="M160 224c0 53.019 42.981 96 96 96s96-42.981 96-96c0-53.019-42.981-96-96-96s-96 42.981-96 96z" />
<glyph unicode="&#xe2af;" glyph-name="menu" d="M32 384h448v-96h-448zM32 256h448v-96h-448zM32 128h448v-96h-448z" />
<glyph unicode="&#xe2b5;" glyph-name="cloud" d="M512 151.229c0 41.045-28.339 75.45-66.498 84.74-1.621 64.35-54.229 116.031-118.931 116.031-37.896 0-71.633-17.747-93.427-45.366-12.221 15.799-31.345 25.98-52.854 25.98-36.905 0-66.821-29.937-66.821-66.861 0-3.218 0.24-6.38 0.682-9.477-5.611 1.012-11.383 1.569-17.285 1.569-53.499 0.001-96.866-43.393-96.866-96.921 0-53.531 43.367-96.924 96.865-96.924l328.131 0.006c48.069 0.092 87.004 39.106 87.004 87.223z" />
<glyph unicode="&#xe2b6;" glyph-name="cloud-download" d="M445.502 299.97c-1.621 64.349-54.229 116.030-118.931 116.030-37.896 0-71.633-17.747-93.427-45.366-12.221 15.799-31.345 25.98-52.854 25.98-36.905 0-66.821-29.937-66.821-66.861 0-3.218 0.24-6.38 0.682-9.477-5.611 1.012-11.383 1.569-17.285 1.569-53.499 0.001-96.866-43.393-96.866-96.921 0-53.531 43.367-96.924 96.865-96.924h49.88l109.255-109.255 109.255 109.255 59.741 0.006c48.069 0.092 87.004 39.106 87.004 87.223 0 41.045-28.339 75.45-66.498 84.741zM256 64l-96 96h64v96h64v-96h64l-96-96z" />
<glyph unicode="&#xe2b7;" glyph-name="cloud-upload" d="M446.134 286.755c1.222 5.555 1.866 11.324 1.866 17.245 0 44.183-35.817 80-80 80-7.111 0-14.007-0.934-20.566-2.676-12.399 38.676-48.645 66.676-91.434 66.676-43.674 0-80.527-29.168-92.163-69.085-11.371 3.311-23.396 5.085-35.837 5.085-70.692 0-128-57.308-128-128 0-70.694 57.308-128 128-128h64v-96h128v96h112c44.183 0 80 35.816 80 80 0 39.36-28.427 72.081-65.866 78.755zM288 160v-96h-64v96h-80l112 112 112-112h-80z" />
<glyph unicode="&#xe2ba;" glyph-name="download" d="M64 96h384v-96h-384zM320 288h112l-148.686-148.687c-15.023-15.022-39.605-15.022-54.627 0l-148.687 148.687h112v160h128v-160z" />
<glyph unicode="&#xe2bb;" glyph-name="upload" d="M64 96h384v-96h-384zM192 288.046h-112l148.686 148.687c15.023 15.022 39.605 15.022 54.627 0l148.687-148.687h-112v-160h-128v160z" />
<glyph unicode="&#xe2c7;" glyph-name="earth" d="M437.020 405.019c48.351-48.352 74.98-112.64 74.98-181.020s-26.629-132.667-74.98-181.019c-48.353-48.351-112.64-74.98-181.020-74.98s-132.667 26.629-181.020 74.98c-48.351 48.352-74.98 112.639-74.98 181.019s26.627 132.668 74.98 181.020c48.353 48.352 112.64 74.981 181.020 74.981s132.667-26.629 181.020-74.981zM414.392 65.607c31.529 31.53 52.493 70.804 61.136 113.531-6.737-9.918-13.181-13.597-17.172 8.603-4.11 36.195-37.354 13.074-58.258 25.93-22.002-14.829-71.453 28.831-63.049-20.412 12.967-22.211 70.004 29.725 41.574-17.271-18.137-32.808-66.321-105.466-60.053-143.129 0.791-54.872-56.067-11.442-75.657 6.76-13.178 36.46-4.491 100.187-38.949 118.043-37.401 1.624-69.502 5.023-83.997 46.835-8.723 29.914 9.282 74.447 41.339 81.322 46.925 29.483 63.687-34.527 107.695-35.717 13.664 14.297 50.908 18.843 53.996 34.875-28.875 5.095 36.634 24.279-2.764 35.191-21.735-2.556-35.739-22.537-24.184-39.479-42.119-9.821-43.468 60.952-83.955 38.629-1.029-35.295-66.111-11.443-22.518-4.286 14.978 6.544-24.43 25.508-3.14 22.062 10.458 0.568 45.666 12.906 36.138 21.201 19.605 12.17 36.080-29.145 55.269 0.941 13.854 23.133-5.81 27.404-23.175 15.678-9.79 10.962 17.285 34.638 41.166 44.869 7.959 3.41 15.561 5.268 21.373 4.742 12.029-13.896 34.275-16.303 35.439 1.671-29.791 14.267-62.638 21.804-96.646 21.804-48.811 0-95.235-15.512-133.654-44.195 10.325-4.73 16.186-10.619 6.239-18.148-7.728-23.027-39.085-53.938-66.612-49.562-14.293-24.648-23.706-51.803-27.73-80.264 23.056-7.628 28.372-22.725 23.418-27.775-11.748-10.244-18.968-24.765-22.688-40.661 7.505-45.918 29.086-88.238 62.635-121.788 42.308-42.307 98.559-65.607 158.392-65.607s116.084 23.3 158.392 65.607z" />
<glyph unicode="&#xe2c8;" glyph-name="network" d="M512 64v192h-128v128h-128v96h-256v-192h96v-32h-32v-32h128v32h-32v32h96v64h96v-96h-96v-192h96v-32h-32v-32h128v32h-32v32h96zM224 320h-192v128h192v-128zM288 96v128h192v-128h-192z" />
<glyph unicode="&#xe2cd;" glyph-name="link" d="M476.698 442.679l-2.014 2.021c-47.074 47.067-124.097 47.067-171.163 0l-109.053-109.068c-47.067-47.066-47.067-124.088 0-171.155l2.013-2.013c3.916-3.924 8.073-7.462 12.368-10.729l39.924 39.925c-4.651 2.747-9.063 6.036-13.058 10.030l-2.021 2.021c-25.557 25.549-25.557 67.136 0 92.695l109.064 109.056c25.558 25.559 67.137 25.559 92.693 0l2.021-2.012c25.55-25.558 25.55-67.146 0-92.695l-49.343-49.343c8.566-21.154 12.624-43.7 12.269-66.193l76.302 76.302c47.067 47.068 47.067 124.089-0.002 171.158zM315.521 285.533c-3.916 3.916-8.073 7.461-12.368 10.72l-39.924-39.916c4.652-2.748 9.063-6.037 13.058-10.031l2.021-2.020c25.558-25.558 25.558-67.136 0-92.694l-109.065-109.067c-25.559-25.551-67.138-25.551-92.694 0l-2.021 2.021c-25.549 25.56-25.549 67.138 0 92.694l49.344 49.343c-8.567 21.153-12.623 43.701-12.269 66.193l-76.301-76.299c-47.068-47.066-47.068-124.089 0-171.162l2.013-2.016c47.076-47.064 124.096-47.064 171.164 0l109.055 109.059c47.067 47.066 47.067 124.097 0 171.163l-2.013 2.012z" />
<glyph unicode="&#xe2d1;" glyph-name="flag" d="M416 393.847c38.233 0 72.546 20.811 96 36.553v-297.845c-23.454-15.743-57.767-36.555-96-36.555s-72.546 11.335-96 27.078c-23.454 15.74-57.767 27.075-96 27.075s-72.545-19.458-96-35.198v297.845c23.455 15.742 57.767 35.2 96 35.2s72.546-11.334 96-27.076c23.454-15.742 57.767-27.077 96-27.077zM64 480c17.673 0 32-14.327 32-32v-480h-64v480c0 17.673 14.327 32 32 32z" />
<glyph unicode="&#xe2d7;" glyph-name="attachment" d="M348.916 316.476l-32.476 32.461-162.405-162.371c-26.907-26.896-26.907-70.524 0-97.422 26.902-26.896 70.53-26.896 97.437 0l194.886 194.854c44.857 44.831 44.857 117.531 0 162.363-44.833 44.852-117.556 44.852-162.391 0l-204.615-204.589c-0.145-0.152-0.306-0.288-0.438-0.423-62.551-62.548-62.551-163.928 0-226.453 62.527-62.528 163.934-62.528 226.494 0 0.137 0.137 0.258 0.284 0.41 0.438l0.016-0.017 139.666 139.646-32.493 32.46-139.665-139.631c-0.148-0.134-0.282-0.285-0.423-0.422-44.537-44.529-116.99-44.529-161.538 0-44.531 44.521-44.531 116.961 0 161.489 0.152 0.152 0.302 0.291 0.444 0.423l-0.023 0.030 204.64 204.583c26.856 26.869 70.572 26.869 97.443 0 26.856-26.867 26.856-70.574 0-97.42l-194.886-194.85c-8.968-8.961-23.527-8.961-32.486 0-8.947 8.943-8.947 23.516 0 32.46l162.403 162.391z" />
<glyph unicode="&#xe2d9;" glyph-name="eye" d="M256 384c-111.659 0-208.441-65.021-256-160 47.559-94.979 144.341-160 256-160 111.657 0 208.439 65.021 256 160-47.558 94.979-144.343 160-256 160zM382.225 299.148c30.081-19.187 55.571-44.887 74.717-75.148-19.146-30.261-44.637-55.961-74.718-75.149-37.797-24.108-81.445-36.851-126.224-36.851-44.78 0-88.428 12.743-126.225 36.852-30.080 19.186-55.57 44.886-74.717 75.148 19.146 30.262 44.637 55.962 74.717 75.148 1.959 1.25 3.938 2.461 5.929 3.65-4.979-13.664-7.704-28.411-7.704-43.798 0-70.692 57.308-128 128-128s128 57.308 128 128c0 15.387-2.725 30.134-7.704 43.799 1.99-1.189 3.969-2.401 5.929-3.651zM256 275c0-26.51-21.49-48-48-48s-48 21.49-48 48 21.49 48 48 48 48-21.49 48-48z" />
<glyph unicode="&#xe2da;" glyph-name="eye-blocked" d="M419.661 331.792c38.822-27.515 70.685-64.546 92.339-107.792-47.561-94.979-144.343-160-256-160-31.283 0-61.396 5.106-89.589 14.542l38.978 38.978c16.529-3.65 33.486-5.52 50.611-5.52 44.779 0 88.427 12.743 126.223 36.852 30.081 19.188 55.572 44.888 74.718 75.149-18.526 29.283-43.007 54.275-71.825 73.247l34.545 34.544zM256 131c-11.362 0-22.376 1.488-32.864 4.267l156.593 156.592c2.781-10.486 4.271-21.497 4.271-32.859 0-70.692-57.308-128-128-128zM480 480h-26.869l-109.806-109.806c-27.538 8.962-56.877 13.806-87.325 13.806-111.659 0-208.441-65.021-256-160 21.329-42.596 52.564-79.154 90.597-106.534l-90.597-90.597v-26.869h26.869l453.131 453.131v26.869zM208 323c24.022 0 43.923-17.647 47.446-40.685l-54.762-54.762c-23.037 3.524-40.684 23.425-40.684 47.447 0 26.51 21.49 48 48 48zM55.058 224c19.146 30.262 44.637 55.962 74.717 75.148 1.959 1.25 3.938 2.461 5.929 3.65-4.979-13.664-7.704-28.411-7.704-43.798 0-29.262 9.825-56.224 26.349-77.781l-29.275-29.275c-28.036 18.821-51.877 43.386-70.016 72.056z" />
<glyph unicode="&#xe2e3;" glyph-name="bookmark" d="M96 480v-512l160 160 160-160v512z" />
<glyph unicode="&#xe2e4;" glyph-name="bookmark2" d="M96 480v-512l160 160 160-160v512h-320zM384 45.255l-128 128-128-128v402.745h256v-402.745z" />
<glyph unicode="&#xe2e5;" glyph-name="bookmarks" d="M128 416v-448l160 160 160-160v448zM384 480h-320v-448l32 32v384h288z" />
<glyph unicode="&#xe304;" glyph-name="heart" d="M512 300.922c0-43.181-18.609-82.015-48.245-108.922h0.245l-160-160c-16-16-32-32-48-32s-32 16-48 32l-159.755 160c-29.636 26.907-48.245 65.741-48.245 108.922 0 81.229 65.849 147.078 147.078 147.078 43.181 0 82.015-18.609 108.922-48.245 26.907 29.636 65.741 48.245 108.922 48.245 81.228 0 147.078-65.849 147.078-147.078z" />
<glyph unicode="&#xe305;" glyph-name="heart2" d="M512 300.922c0 81.229-65.85 147.078-147.078 147.078-43.181 0-82.015-18.609-108.922-48.245-26.907 29.636-65.741 48.245-108.922 48.245-81.229 0-147.078-65.849-147.078-147.078 0-43.181 18.609-82.015 48.245-108.922h-0.245l160-160c16-16 32-32 48-32s32 16 48 32l159.755 160c29.636 26.907 48.245 65.741 48.245 108.922zM420.734 239.384l-161.989-162.129c-0.839-0.839-1.766-1.766-2.745-2.74-0.98 0.975-1.907 1.901-2.745 2.74l-161.989 162.128c-17.583 15.964-27.266 37.819-27.266 61.539 0 45.809 37.269 83.078 83.078 83.078 23.72 0 45.575-9.683 61.538-27.266l47.384-52.19 47.384 52.189c15.964 17.584 37.818 27.267 61.538 27.267 45.809 0 83.078-37.269 83.078-83.078 0-23.72-9.684-45.575-27.266-61.538z" />
<glyph unicode="&#xe313;" glyph-name="thumbs-up" d="M464 192c36.5 0 16-96-16-96 16 0 0-80-32-80 0-32-32-48-64-48-135.176 0-87.632 33.825-224 48v256c120.461 36.134 240 126.712 240 208 26.5 0 96-32 0-192 0 0 80 0 96 0 48 0 32-96 0-96zM96 272v-256h32v-16h-64c-17.6 0-32 21.6-32 48v192c0 26.4 14.4 48 32 48h64v-16h-32z" />
<glyph unicode="&#xe314;" glyph-name="thumbs-up2" d="M48 256c-36.5 0-16 96 16 96-16 0 0 80 32 80 0 32 32 48 64 48 135.176 0 87.632-33.825 224-48v-256c-120.461-36.134-240-126.712-240-208-26.5 0-96 32 0 192 0 0-80 0-96 0-48 0-32 96 0 96zM416 176v256h-32v16h64c17.6 0 32-21.6 32-48v-192c0-26.4-14.4-48-32-48h-64v16h32z" />
<glyph unicode="&#xe317;" glyph-name="people" d="M192 352h-160c-17.6 0-32-14.4-32-32v-128c0-17.6 14.4-32 32-32v0 128h16v-296c0-13.2 10.8-24 24-24s24 10.8 24 24v168h32v-168c0-13.2 10.8-24 24-24s24 10.8 24 24v296h16v-128c17.6 0 32 14.4 32 32v128c0 17.6-14.4 32-32 32zM64.016 432.016c0 26.501 21.483 47.984 47.984 47.984s47.984-21.483 47.984-47.984c0-26.501-21.483-47.984-47.984-47.984s-47.984 21.483-47.984 47.984zM480 352h-160c-17.6 0-32-14.4-32-32v-128c0-17.6 14.4-32 32-32v128h16v-296c0-13.2 10.8-24 24-24s24 10.8 24 24v168h32v-168c0-13.2 10.8-24 24-24s24 10.8 24 24v296h16v-128c17.6 0 32 14.4 32 32v128c0 17.6-14.4 32-32 32zM352.016 432.016c0 0 0 0 0 0 0 26.501 21.483 47.984 47.984 47.984s47.984-21.483 47.984-47.984c0 0 0 0 0 0 0-26.501-21.483-47.984-47.984-47.984s-47.984 21.483-47.984 47.984z" />
<glyph unicode="&#xe318;" glyph-name="man" d="M320 352h-160c-17.601 0-32-14.4-32-32v-128c0-17.6 14.399-32 32-32v0 128h16v-296c0-13.2 10.8-24 24-24s24 10.8 24 24v168h32v-168c0-13.2 10.8-24 24-24s24 10.8 24 24v296h16v-128c17.6 0 32 14.4 32 32v128c0 17.6-14.4 32-32 32zM192 416c0 26.51 21.49 48 48 48s48-21.49 48-48c0-26.51-21.49-48-48-48s-48 21.49-48 48z" />
<glyph unicode="&#xe31a;" glyph-name="woman" d="M405.369 258.501l-62.063 62.063c-0.070 0.070-0.138-0.145-0.207-0.075-22.545 22.545-31.862 31.511-54.42 31.511h-64c-22.557 0-31.875-8.966-54.42-31.511l-0.704-0.066-62.555-61.922c-13-13.575-10.816-33.939 0.497-45.253l93.188 92.66-74.32-145.908h65.636v-159.436c0-13.257 10.745-24 24-24 13.254 0 24 10.743 24 24v159.436h32v-159.436c0-13.257 10.745-24 24-24s24 10.743 24 24v159.436h64.68l-73.372 147.027 94.064-93.841c11.307 11.313 13.565 31.743-0.004 45.315zM208.411 416c0 26.51 21.49 48 48 48s48-21.49 48-48c0-26.51-21.49-48-48-48s-48 21.49-48 48z" />
<glyph unicode="&#xe31e;" glyph-name="happy" d="M256-32c141.385 0 256 114.615 256 256s-114.615 256-256 256-256-114.615-256-256 114.615-256 256-256zM256 432c114.875 0 208-93.125 208-208s-93.125-208-208-208-208 93.125-208 208 93.125 208 208 208zM256 180.62c57.975 0 113.115 15.403 160 42.46-7.287-89.219-76.564-159.080-160-159.080-83.434 0-152.711 69.936-160 159.152 46.885-27.056 102.025-42.532 160-42.532zM128 304c0 26.51 14.327 48 32 48s32-21.49 32-48c0-26.51-14.327-48-32-48s-32 21.49-32 48zM320 304c0 26.51 14.327 48 32 48s32-21.49 32-48c0-26.51-14.327-48-32-48s-32 21.49-32 48z" />
<glyph unicode="&#xe320;" glyph-name="smiley" d="M256-32c141.385 0 256 114.615 256 256s-114.615 256-256 256-256-114.615-256-256 114.615-256 256-256zM256 432c114.875 0 208-93.125 208-208s-93.125-208-208-208-208 93.125-208 208 93.125 208 208 208zM128 320c0 17.673 14.327 32 32 32s32-14.327 32-32c0-17.673-14.327-32-32-32s-32 14.327-32 32zM320 320c0 17.673 14.327 32 32 32s32-14.327 32-32c0-17.673-14.327-32-32-32s-32 14.327-32 32zM352.049 166.37l41.164-24.698c-27.981-46.535-78.958-77.672-137.213-77.672s-109.232 31.137-137.213 77.672l41.164 24.698c19.587-32.574 55.271-54.37 96.049-54.37s76.462 21.796 96.049 54.37z" />
<glyph unicode="&#xe322;" glyph-name="tongue" d="M256-32c141.385 0 256 114.615 256 256s-114.615 256-256 256-256-114.615-256-256 114.615-256 256-256zM256 432c114.875 0 208-93.125 208-208s-93.125-208-208-208-208 93.125-208 208 93.125 208 208 208zM128 320c0 17.673 14.327 32 32 32s32-14.327 32-32c0-17.673-14.327-32-32-32s-32 14.327-32 32zM320 320c0 17.673 14.327 32 32 32s32-14.327 32-32c0-17.673-14.327-32-32-32s-32 14.327-32 32zM384 192v-32h-32v-48c0-26.51-21.49-48-48-48s-48 21.49-48 48v48h-128v32h256z" />
<glyph unicode="&#xe324;" glyph-name="sad" d="M256-32c141.385 0 256 114.615 256 256s-114.615 256-256 256-256-114.615-256-256 114.615-256 256-256zM256 432c114.875 0 208-93.125 208-208s-93.125-208-208-208-208 93.125-208 208 93.125 208 208 208zM128 320c0 17.673 14.327 32 32 32s32-14.327 32-32c0-17.673-14.327-32-32-32s-32 14.327-32 32zM320 320c0 17.673 14.327 32 32 32s32-14.327 32-32c0-17.673-14.327-32-32-32s-32 14.327-32 32zM159.951 89.63l-41.164 24.698c27.981 46.535 78.958 77.672 137.213 77.672s109.231-31.137 137.213-77.672l-41.164-24.698c-19.587 32.574-55.271 54.37-96.049 54.37-40.779 0-76.462-21.796-96.049-54.37z" />
<glyph unicode="&#xe326;" glyph-name="wink" d="M256-32c141.385 0 256 114.615 256 256s-114.615 256-256 256-256-114.615-256-256 114.615-256 256-256zM256 432c114.875 0 208-93.125 208-208s-93.125-208-208-208-208 93.125-208 208 93.125 208 208 208zM271.37 124.486c70.124 13.853 124.555 45.771 144.227 88.297-10.827-83.978-80.759-148.783-165.425-148.783-59.621 0-111.929 32.141-141.446 80.474 35.205-27.529 97.267-32.904 162.644-19.988zM320 304c0 26.51 14.327 48 32 48s32-21.49 32-48c0-26.51-14.327-48-32-48s-32 21.49-32 48zM176 294.25c-20.898 0-38.667-7.828-45.258-18.75-1.77 2.933-2.742 16.087-2.742 19.375 0 15.533 21.49 28.125 48 28.125s48-12.592 48-28.125c0-3.288-0.972-16.442-2.742-19.375-6.591 10.922-24.36 18.75-45.258 18.75z" />
<glyph unicode="&#xe328;" glyph-name="grin" d="M256-32c141.385 0 256 114.615 256 256s-114.615 256-256 256-256-114.615-256-256 114.615-256 256-256zM256 432c114.875 0 208-93.125 208-208s-93.125-208-208-208-208 93.125-208 208 93.125 208 208 208zM96 224v-32c0-70.4 57.6-128 128-128h64c70.4 0 128 57.6 128 128v32h-320zM192 101.506c-13.269 4.729-25.462 12.411-35.772 22.723-18.203 18.201-28.228 42.27-28.228 67.771h64v-90.494zM288 96h-64v96h64v-96zM355.772 124.229c-10.312-10.312-22.505-17.994-35.772-22.723v90.494h64c0-25.501-10.024-49.57-28.228-67.771zM112.676 288c0.001 0 0 0 0 0 4.884 0 9.054 3.528 9.862 8.345 3.079 18.342 18.834 31.655 37.462 31.655s34.383-13.313 37.462-31.655c0.808-4.816 4.978-8.345 9.861-8.345 4.884 0 9.054 3.528 9.862 8.344 0.541 3.218 0.814 6.467 0.814 9.656 0 31.981-26.019 58-58 58s-58-26.019-58-58c0-3.189 0.274-6.438 0.814-9.656 0.81-4.816 4.98-8.344 9.863-8.344zM304.676 288c0.001 0 0 0 0 0 4.885 0 9.056 3.528 9.862 8.345 3.079 18.342 18.834 31.655 37.462 31.655s34.383-13.313 37.462-31.655c0.808-4.816 4.979-8.345 9.861-8.345s9.054 3.528 9.861 8.344c0.541 3.218 0.814 6.467 0.814 9.656 0 31.981-26.019 58-58 58s-58-26.019-58-58c0-3.189 0.272-6.438 0.813-9.656 0.812-4.816 4.982-8.344 9.865-8.344z" />
<glyph unicode="&#xe32a;" glyph-name="cool" d="M256-32c141.385 0 256 114.615 256 256s-114.615 256-256 256-256-114.615-256-256 114.615-256 256-256zM256 432c114.875 0 208-93.125 208-208s-93.125-208-208-208-208 93.125-208 208 93.125 208 208 208zM400 352c8.8 0 16-7.2 16-16v-48c0-17.6-14.4-32-32-32h-64c-17.6 0-32 14.4-32 32h-64c0-17.6-14.4-32-32-32h-64c-17.6 0-32 14.4-32 32v48c0 8.8 7.2 16 16 16h96c8.8 0 16-7.2 16-16v-16h64v16c0 8.8 7.2 16 16 16h96zM256 96c46.604 0 87.386 24.909 109.773 62.139l27.44-16.467c-27.983-46.535-78.958-77.672-137.213-77.672-24.229 0-47.192 5.398-67.77 15.041l16.581 27.639c15.677-6.857 32.982-10.68 51.189-10.68z" />
<glyph unicode="&#xe32c;" glyph-name="angry" d="M256-32c141.385 0 256 114.615 256 256s-114.615 256-256 256-256-114.615-256-256 114.615-256 256-256zM256 432c114.875 0 208-93.125 208-208s-93.125-208-208-208-208 93.125-208 208 93.125 208 208 208zM352.049 89.63c-19.587 32.574-55.272 54.37-96.049 54.37s-76.462-21.796-96.049-54.37l-41.164 24.698c27.98 46.535 78.958 77.672 137.213 77.672s109.232-31.137 137.213-77.672l-41.164-24.698zM383.521 339.88c2.142-8.572-3.070-17.259-11.641-19.402-8.813-2.225-19.261-6.060-28.468-10.675 5.324-5.715 8.587-13.376 8.587-21.803 0-17.673-14.327-32-32-32s-32 14.327-32 32c0 0.585 0.018 1.165 0.049 1.742 1.016 23.727 22.606 39.473 40.796 48.569 17.371 8.685 34.551 13.030 35.274 13.211 8.573 2.144 17.259-3.069 19.403-11.642zM128.479 339.88c2.144 8.573 10.83 13.786 19.403 11.642 0.723-0.181 17.903-4.526 35.274-13.211 18.19-9.096 39.78-24.842 40.796-48.569 0.031-0.577 0.049-1.157 0.049-1.742 0-17.673-14.327-32-32-32s-32 14.327-32 32c0 8.427 3.263 16.088 8.587 21.803-9.207 4.615-19.655 8.45-28.468 10.675-8.571 2.143-13.783 10.83-11.641 19.402z" />
<glyph unicode="&#xe32e;" glyph-name="evil" d="M319.998 256c-17.673 0-32 14.327-31.999 32.001 0 0.585 0.018 1.165 0.049 1.742 1.016 23.727 22.606 39.473 40.796 48.569 17.371 8.685 34.551 13.030 35.274 13.211 8.573 2.144 17.259-3.069 19.403-11.642 2.142-8.573-3.070-17.259-11.642-19.403-8.813-2.225-19.261-6.060-28.468-10.675 5.324-5.715 8.587-13.376 8.587-21.803 0-17.673-14.327-32-32-32zM140.121 320.478c-8.572 2.143-13.784 10.83-11.641 19.402s10.83 13.786 19.403 11.642c0.722-0.181 17.903-4.525 35.274-13.211 18.191-9.095 39.78-24.842 40.796-48.569 0.031-0.577 0.049-1.158 0.049-1.742 0-17.673-14.327-32-32-32s-32 14.327-32 32c0 8.427 3.263 16.088 8.587 21.803-9.207 4.615-19.656 8.45-28.468 10.675zM256 112c40.777 0 76.462 21.796 96.049 54.37l41.164-24.698c-27.981-46.535-78.958-77.672-137.213-77.672s-109.232 31.137-137.213 77.672l41.164 24.698c19.587-32.574 55.271-54.37 96.049-54.37zM512 448c0 22.758-4.762 44.4-13.326 64-16.788-38.418-48.224-68.966-87.247-84.589-43.097 32.98-96.968 52.589-155.427 52.589s-112.33-19.609-155.427-52.589c-39.024 15.623-70.459 46.171-87.247 84.589-8.564-19.6-13.326-41.242-13.326-64 0-36.787 12.425-70.664 33.294-97.689-21.185-37.271-33.294-80.375-33.294-126.311 0-141.385 114.615-256 256-256s256 114.615 256 256c0 45.936-12.109 89.040-33.294 126.311 20.869 27.025 33.294 60.902 33.294 97.689zM256 16c-114.875 0-208 93.125-208 208s93.125 208 208 208 208-93.125 208-208-93.125-208-208-208z" />
<glyph unicode="&#xe330;" glyph-name="shocked" d="M256-32c141.385 0 256 114.615 256 256s-114.615 256-256 256-256-114.615-256-256 114.615-256 256-256zM256 432c114.875 0 208-93.125 208-208s-93.125-208-208-208-208 93.125-208 208 93.125 208 208 208zM192 128c0 35.346 28.654 64 64 64s64-28.654 64-64c0-35.346-28.654-64-64-64s-64 28.654-64 64zM320 304c0 26.51 14.327 48 32 48s32-21.49 32-48c0-26.51-14.327-48-32-48s-32 21.49-32 48zM128 304c0 26.51 14.327 48 32 48s32-21.49 32-48c0-26.51-14.327-48-32-48s-32 21.49-32 48z" />
<glyph unicode="&#xe332;" glyph-name="confused" d="M256-32c141.385 0 256 114.615 256 256s-114.615 256-256 256-256-114.615-256-256 114.615-256 256-256zM256 432c114.875 0 208-93.125 208-208s-93.125-208-208-208-208 93.125-208 208 93.125 208 208 208zM128 320c0 17.673 14.327 32 32 32s32-14.327 32-32c0-17.673-14.327-32-32-32s-32 14.327-32 32zM320 320c0 17.673 14.327 32 32 32s32-14.327 32-32c0-17.673-14.327-32-32-32s-32 14.327-32 32zM363.053 160h32.432c4.623-36.253-16.226-72.265-51.979-85.28-41.452-15.088-87.45 6.358-102.54 47.808-9.054 24.872-36.653 37.741-61.524 28.686-22.781-8.294-35.478-32.149-30.494-55.212h-32.43c-4.621 36.254 16.225 72.264 51.978 85.28 41.452 15.089 87.451-6.358 102.541-47.807 9.052-24.874 36.653-37.741 61.522-28.686 22.781 8.292 35.478 32.149 30.494 55.211z" />
<glyph unicode="&#xe334;" glyph-name="neutral" d="M256-32c141.385 0 256 114.615 256 256s-114.615 256-256 256-256-114.615-256-256 114.615-256 256-256zM256 432c114.875 0 208-93.125 208-208s-93.125-208-208-208-208 93.125-208 208 93.125 208 208 208zM128 320c0-17.673 14.327-32 32-32s32 14.327 32 32-14.327 32-32 32-32-14.327-32-32zM320 320c0-17.673 14.327-32 32-32s32 14.327 32 32-14.327 32-32 32-32-14.327-32-32zM192 128h128v-32h-128v32z" />
<glyph unicode="&#xe336;" glyph-name="wondering" d="M256-32c141.385 0 256 114.615 256 256s-114.615 256-256 256-256-114.615-256-256 114.615-256 256-256zM256 432c114.875 0 208-93.125 208-208s-93.125-208-208-208-208 93.125-208 208 93.125 208 208 208zM372.87 179.19l11.244-38.388-218.504-64.001-11.244 38.388zM128 320c0 17.673 14.327 32 32 32s32-14.327 32-32c0-17.673-14.327-32-32-32s-32 14.327-32 32zM320 320c0 17.673 14.327 32 32 32s32-14.327 32-32c0-17.673-14.327-32-32-32s-32 14.327-32 32z" />
<glyph unicode="&#xe338;" glyph-name="cursor" d="M323.817 237.137l-323.817 242.863v-404.771l101.067 95.305 101.068-202.534 85.865 42.933-101.067 202.534z" />
<glyph unicode="&#xe339;" glyph-name="cursor2" d="M186.198-32.566l-86.215 176.278-99.983-96.198v432.486l338.877-259.318-135.087-23.833 86.285-176.421-103.877-52.994zM109.438 197.215l91.207-186.486 46.858 23.905-91.137 186.342 105.211 18.563-229.577 175.68v-292.51l77.438 74.506z" />
<glyph unicode="&#xe355;" glyph-name="warning" d="M256 400.638l-172.417-368.638h344.834l-172.417 368.638zM256 480v0c11.035 0 22.070-7.441 30.442-22.324l218.536-435.556c16.745-29.766 2.5-54.12-31.651-54.12h-434.654c-34.152 0-48.395 24.354-31.652 54.12l218.537 435.556c8.372 14.883 19.407 22.324 30.442 22.324zM224 96c0 17.673 14.327 32 32 32s32-14.327 32-32c0-17.673-14.327-32-32-32s-32 14.327-32 32zM256 288c17.673 0 32-14.327 32-32l-10-96h-44l-10 96c0 17.673 14.327 32 32 32z" />
<glyph unicode="&#xe356;" glyph-name="warning2" d="M504.978 22.12l-218.537 435.556c-8.371 14.883-19.406 22.324-30.441 22.324s-22.070-7.441-30.442-22.324l-218.537-435.556c-16.743-29.766-2.5-54.12 31.652-54.12h434.654c34.151 0 48.396 24.354 31.651 54.12zM256 32c-17.673 0-32 14.327-32 32s14.327 32 32 32c17.674 0 32-14.326 32-32s-14.326-32-32-32zM278 128h-44l-10 128c0 17.673 14.327 32 32 32s32-14.327 32-32l-10-128z" />
<glyph unicode="&#xe357;" glyph-name="notification" d="M256 432c-55.559 0-107.792-21.636-147.078-60.922s-60.922-91.519-60.922-147.078c0-55.559 21.636-107.792 60.922-147.078s91.519-60.922 147.078-60.922c55.559 0 107.792 21.636 147.078 60.922s60.922 91.519 60.922 147.078c0 55.559-21.636 107.792-60.922 147.078s-91.519 60.922-147.078 60.922zM256 480v0c141.385 0 256-114.615 256-256s-114.615-256-256-256c-141.385 0-256 114.615-256 256s114.615 256 256 256zM224 128h64v-64h-64zM224 384h64v-192h-64z" />
<glyph unicode="&#xe358;" glyph-name="notification2" d="M256 480c-141.385 0-256-114.615-256-256s114.615-256 256-256 256 114.615 256 256-114.615 256-256 256zM288 64h-64v64h64v-64zM288 192h-64v192h64v-192z" />
<glyph unicode="&#xe35b;" glyph-name="question" d="M320 384c35.29 0 64-28.71 64-64v-64c0-35.29-28.71-64-64-64h-31.941c-0.021-0.018-0.041-0.038-0.059-0.059v-31.941h-64v32c0 35.29 28.71 64 64 64h31.942c0.020 0.016 0.041 0.037 0.058 0.057v63.885c-0.017 0.020-0.037 0.041-0.058 0.058h-159.942v64h160zM224 128h64v-64h-64zM256 432c-55.559 0-107.792-21.636-147.078-60.922s-60.922-91.519-60.922-147.078c0-55.559 21.636-107.792 60.922-147.078s91.519-60.922 147.078-60.922c55.559 0 107.792 21.636 147.078 60.922s60.922 91.519 60.922 147.078c0 55.559-21.636 107.792-60.922 147.078s-91.519 60.922-147.078 60.922zM256 480v0c141.385 0 256-114.615 256-256s-114.615-256-256-256c-141.385 0-256 114.615-256 256s114.615 256 256 256z" />
<glyph unicode="&#xe35c;" glyph-name="question2" d="M256 480c-141.385 0-256-114.615-256-256s114.613-256 256-256c141.385 0 256 114.615 256 256s-114.615 256-256 256zM288 64h-64v64h64v-64zM384 256c0-35.29-28.71-64-64-64h-31.942c-0.020-0.017-0.041-0.038-0.058-0.058v-31.942h-64v32c0 35.29 28.71 64 64 64h31.942c0.020 0.017 0.041 0.038 0.058 0.057v63.885c-0.017 0.020-0.037 0.041-0.058 0.058h-159.942v64h160c35.29 0 64-28.71 64-64v-64z" />
<glyph unicode="&#xe35e;" glyph-name="plus-circle" d="M256 480c-141.385 0-256-114.615-256-256s114.615-256 256-256 256 114.615 256 256-114.615 256-256 256zM256 32c-106.039 0-192 85.961-192 192s85.961 192 192 192c106.039 0 192-85.961 192-192s-85.961-192-192-192zM384 192h-96v-96h-64v96h-96v64h96v96h64v-96h96z" />
<glyph unicode="&#xe35f;" glyph-name="plus-circle2" d="M256 480c-141.385 0-256-114.615-256-256s114.615-256 256-256 256 114.615 256 256-114.615 256-256 256zM288 192v-128h-64v128h-128v64h128v128h64v-128h128v-64h-128z" />
<glyph unicode="&#xe360;" glyph-name="minus-circle" d="M256 480c-141.385 0-256-114.615-256-256s114.615-256 256-256 256 114.615 256 256-114.615 256-256 256zM256 32c-106.039 0-192 85.961-192 192s85.961 192 192 192c106.039 0 192-85.961 192-192s-85.961-192-192-192zM128 256h256v-64h-256z" />
<glyph unicode="&#xe361;" glyph-name="minus-circle2" d="M256 480c-141.385 0-256-114.615-256-256s114.615-256 256-256 256 114.615 256 256-114.615 256-256 256zM416 192h-320v64h320v-64z" />
<glyph unicode="&#xe362;" glyph-name="info" d="M256 480c-141.385 0-256-114.615-256-256s114.615-256 256-256 256 114.615 256 256-114.615 256-256 256zM256 16c-114.875 0-208 93.125-208 208s93.125 208 208 208 208-93.125 208-208-93.125-208-208-208zM224 352h64v-64h-64zM320 96h-128v32h32v96h-32v32h96v-128h32z" />
<glyph unicode="&#xe363;" glyph-name="info2" d="M256 480c-141.385 0-256-114.615-256-256s114.615-256 256-256 256 114.615 256 256-114.615 256-256 256zM224 384h64v-64h-64v64zM320 64h-128v32h32v128h-32v32h96v-160h32v-32z" />
<glyph unicode="&#xe36b;" glyph-name="close" d="M507.331 68.67c-0.002 0.002-0.004 0.004-0.006 0.005l-155.322 155.325 155.322 155.325c0.002 0.002 0.004 0.003 0.006 0.005 1.672 1.673 2.881 3.627 3.656 5.708 2.123 5.688 0.912 12.341-3.662 16.915l-73.373 73.373c-4.574 4.573-11.225 5.783-16.914 3.66-2.080-0.775-4.035-1.984-5.709-3.655 0-0.002-0.002-0.003-0.004-0.005l-155.324-155.326-155.324 155.325c-0.002 0.002-0.003 0.003-0.005 0.005-1.673 1.671-3.627 2.88-5.707 3.655-5.69 2.124-12.341 0.913-16.915-3.66l-73.374-73.374c-4.574-4.574-5.784-11.226-3.661-16.914 0.776-2.080 1.985-4.036 3.656-5.708 0.002-0.001 0.003-0.003 0.005-0.005l155.325-155.324-155.325-155.326c-0.001-0.002-0.003-0.003-0.004-0.005-1.671-1.673-2.88-3.627-3.657-5.707-2.124-5.688-0.913-12.341 3.661-16.915l73.374-73.373c4.575-4.574 11.226-5.784 16.915-3.661 2.080 0.776 4.035 1.985 5.708 3.656 0.001 0.002 0.003 0.003 0.005 0.005l155.324 155.325 155.324-155.325c0.002-0.001 0.004-0.003 0.006-0.004 1.674-1.672 3.627-2.881 5.707-3.657 5.689-2.123 12.342-0.913 16.914 3.661l73.373 73.374c4.574 4.574 5.785 11.227 3.662 16.915-0.776 2.080-1.985 4.034-3.657 5.707z" />
<glyph unicode="&#xe370;" glyph-name="checkmark" d="M432 416l-240-240-112 112-80-80 192-192 320 320z" />
<glyph unicode="&#xe375;" glyph-name="minus" d="M0 272v-96c0-8.836 7.164-16 16-16h480c8.836 0 16 7.164 16 16v96c0 8.836-7.164 16-16 16h-480c-8.836 0-16-7.164-16-16z" />
<glyph unicode="&#xe376;" glyph-name="plus" d="M496 288h-176v176c0 8.836-7.164 16-16 16h-96c-8.836 0-16-7.164-16-16v-176h-176c-8.836 0-16-7.164-16-16v-96c0-8.836 7.164-16 16-16h176v-176c0-8.836 7.164-16 16-16h96c8.836 0 16 7.164 16 16v176h176c8.836 0 16 7.164 16 16v96c0 8.836-7.164 16-16 16z" />
<glyph unicode="&#xe37d;" glyph-name="enter" d="M192 224h-160v64h160v64l96-96-96-96zM512 480v-416l-192-96v96h-192v128h32v-96h160v288l128 64h-288v-128h-32v160z" />
<glyph unicode="&#xe37e;" glyph-name="exit" d="M384 160v64h-160v64h160v64l96-96zM352 192v-128h-160v-96l-192 96v416h352v-160h-32v128h-256l128-64v-288h128v96z" />
<glyph unicode="&#xe385;" glyph-name="play2" d="M96 416l320-192-320-192z" />
<glyph unicode="&#xe386;" glyph-name="pause2" d="M64 416h160v-384h-160zM288 416h160v-384h-160z" />
<glyph unicode="&#xe387;" glyph-name="stop2" d="M64 416h384v-384h-384z" />
<glyph unicode="&#xe388;" glyph-name="backward2" d="M288 400v-160l160 160v-352l-160 160v-160l-176 176z" />
<glyph unicode="&#xe389;" glyph-name="forward3" d="M256 48v160l-160-160v352l160-160v160l176-176z" />
<glyph unicode="&#xe38a;" glyph-name="first" d="M64 32v384h64v-176l160 160v-160l160 160v-352l-160 160v-160l-160 160v-176z" />
<glyph unicode="&#xe38b;" glyph-name="last" d="M448 416v-384h-64v176l-160-160v160l-160-160v352l160-160v160l160-160v176z" />
<glyph unicode="&#xe38e;" glyph-name="eject" d="M0 96h512v-64h-512zM256 416l256-256h-512z" />
<glyph unicode="&#xe38f;" glyph-name="volume-high" horiz-adv-x="544" d="M445.020 18.98c-6.143 0-12.284 2.343-16.971 7.029-9.372 9.373-9.372 24.568 0 33.941 43.819 43.821 67.952 102.080 67.952 164.050 0 61.969-24.133 120.229-67.952 164.049-9.372 9.373-9.372 24.569 0 33.941s24.569 9.372 33.941 0c52.885-52.886 82.011-123.2 82.011-197.99s-29.126-145.104-82.011-197.99c-4.686-4.687-10.828-7.030-16.97-7.030zM359.765 64.235c-6.143 0-12.284 2.343-16.971 7.029-9.372 9.372-9.372 24.568 0 33.941 65.503 65.503 65.503 172.085 0 237.588-9.372 9.373-9.372 24.569 0 33.941 9.372 9.371 24.569 9.372 33.941 0 40.797-40.796 63.265-95.038 63.265-152.734s-22.468-111.938-63.265-152.735c-4.686-4.687-10.828-7.030-16.97-7.030zM274.51 109.49c-6.143 0-12.284 2.343-16.971 7.029-9.373 9.373-9.373 24.568 0 33.941 40.55 40.55 40.55 106.529 0 147.078-9.373 9.373-9.373 24.569 0 33.941s24.568 9.372 33.941 0c59.265-59.265 59.265-155.696 0-214.961-4.686-4.685-10.828-7.028-16.97-7.028zM200.666 440.666c12.834 12.834 23.334 8.484 23.334-9.666v-414c0-18.15-10.5-22.499-23.334-9.665l-120.666 120.665h-80v192h80l120.666 120.666z" />
<glyph unicode="&#xe392;" glyph-name="volume-mute" d="M200.666 440.666c12.834 12.834 23.334 8.484 23.334-9.666v-414c0-18.15-10.5-22.499-23.334-9.665l-120.666 120.665h-80v192h80l120.666 120.666z" />
<glyph unicode="&#xe393;" glyph-name="volume-mute2" d="M200.666 440.666c12.834 12.834 23.334 8.484 23.334-9.666v-414c0-18.15-10.5-22.499-23.334-9.665l-120.666 120.665h-80v192h80l120.666 120.666zM480 170.426v-42.426h-42.426l-53.574 53.574-53.574-53.574h-42.426v42.426l53.574 53.574-53.574 53.574v42.426h42.426l53.574-53.574 53.574 53.574h42.426v-42.426l-53.574-53.574z" />
<glyph unicode="&#xe3a5;" glyph-name="loop" d="M64 320h320v-96l128 128-128 128v-96h-384v-192h64zM448 128h-320v96l-128-128 128-128v96h384v192h-64z" />
<glyph unicode="&#xe3ab;" glyph-name="shuffle" d="M384 128v64l128-96-128-96v64h-92c-12.621 0-25.021 6.379-32.36 16.648l-148.107 207.352h-111.533v64h124c12.624 0 25.025-6.381 32.363-16.653l51.637-72.292 51.64 72.297c7.339 10.269 19.739 16.648 32.36 16.648h92v64l128-96-128-96v64h-79.532l-57.143-80 57.143-80h79.532zM111.533 128l33.735 47.23 39.325-55.056-28.23-39.521c-7.338-10.272-19.739-16.653-32.363-16.653h-124v64h111.533z" />
<glyph unicode="&#xe3b0;" glyph-name="arrow-up" d="M0 160l96-96 160 160 160-160 96 96-255.999 256z" />
<glyph unicode="&#xe3b1;" glyph-name="arrow-right" d="M192 480l-96-96 160-160-160-160 96-96 256 256z" />
<glyph unicode="&#xe3b2;" glyph-name="arrow-down" d="M512 288l-96 96-160-160-160 160-96-96 256-255.999z" />
<glyph unicode="&#xe3b3;" glyph-name="arrow-left" d="M320-32l96 96-160 160 160 160-96 96-256-256z" />
<glyph unicode="&#xe404;" glyph-name="arrow-up42" d="M256 480l-224-512 224 96 224-96z" />
<glyph unicode="&#xe436;" glyph-name="checkbox-unchecked" d="M448 416v-384h-384v384h384zM464 480h-416c-26.4 0-48-21.6-48-48v-416c0-26.4 21.6-48 48-48h416c26.4 0 48 21.6 48 48v416c0 26.4-21.6 48-48 48v0z" />
<glyph unicode="&#xe439;" glyph-name="radio-unchecked" d="M256 480c-141.385 0-256-114.615-256-256s114.615-256 256-256 256 114.615 256 256-114.615 256-256 256zM256 32c-106.039 0-192 85.961-192 192s85.961 192 192 192c106.039 0 192-85.961 192-192s-85.961-192-192-192z" />
<glyph unicode="&#xe43c;" glyph-name="crop" d="M416 352l96 96-32 32-96-96h-224v96h-64v-96h-96v-64h96v-256h256v-96h64v96h96v64h-96v224zM160 320h160l-160-160v160zM192 128l160 160v-160h-160z" />
<glyph unicode="&#xe43d;" glyph-name="crop2" d="M320 288h-104v96h200v-200h-96zM512 160v-96h-416v416h96v-320zM0 384h72v-96h-72zM320 40h96v-72h-96z" />
<glyph unicode="&#xe43f;" glyph-name="rulers" d="M256 416v64h-192v-64h-64v-192h64v-256h192v256h256v192h-256zM64 256h-32v128h32v-128zM224 416h-64v-32h64v-32h-64v-32h64v-32h-64v-32h64v-32h-64v-32h64v-32h-64v-32h64v-32h-64v-32h64v-64h-128v448h128v-32zM480 256h-32v64h-32v-64h-32v64h-32v-64h-32v64h-32v-64h-32v128h224v-128z" />
<glyph unicode="&#xe442;" glyph-name="scissors" d="M445.387 125.423c-22.827 22.778-51.864 34.536-78.973 34.536h-14.556l-31.952 32.004 127.81 128.019c31.952 32.005 31.952 96.014 0 128.019l-191.715-192.028-191.716 192.027c-31.952-32.004-31.952-96.014 0-128.019l127.811-128.017-31.953-32.004h-14.557c-27.11 0-56.146-11.759-78.974-34.538-40.811-40.721-46.325-101.242-12.315-135.175 14.985-14.951 35.144-22.247 56.498-22.247 27.108 0 56.145 11.757 78.973 34.536 26.792 26.732 38.371 62 33.542 92.674l32.692 32.744 32.688-32.744c-4.828-30.674 6.753-65.941 33.542-92.674 22.831-22.779 51.866-34.536 78.974-34.536 21.354 0 41.512 7.296 56.497 22.248 34.010 33.933 28.494 94.454-12.316 135.175zM176.512 57.231c-3.849-8.941-9.505-17.173-16.813-24.463-7.318-7.302-15.586-12.959-24.574-16.812-8.066-3.458-16.48-5.284-24.331-5.284-7.573 0-18.306 1.701-26.431 9.806-8.068 8.052-9.76 18.659-9.76 26.144 0 7.771 1.821 16.105 5.263 24.106 3.85 8.942 9.507 17.173 16.813 24.463 7.317 7.303 15.586 12.957 24.575 16.812 8.067 3.457 16.48 5.284 24.332 5.284 7.573 0 18.306-1.7 26.429-9.807 8.067-8.049 9.761-18.658 9.761-26.142 0.001-7.771-1.819-16.108-5.264-24.107zM256.002 146.702c-24.957 0-45.188 20.266-45.188 45.263s20.231 45.26 45.188 45.26 45.186-20.264 45.186-45.26c0-24.999-20.23-45.263-45.186-45.263zM427.636 20.479c-8.124-8.104-18.856-9.806-26.43-9.806-7.852 0-16.265 1.826-24.333 5.284-8.986 3.853-17.254 9.51-24.571 16.812-7.307 7.29-12.963 15.521-16.813 24.463-3.443 7.999-5.263 16.336-5.263 24.106 0 7.483 1.692 18.094 9.76 26.143 8.123 8.104 18.856 9.807 26.43 9.807 7.85 0 16.265-1.827 24.33-5.284 8.989-3.854 17.258-9.509 24.575-16.812 7.305-7.29 12.962-15.521 16.813-24.463 3.442-7.999 5.263-16.335 5.263-24.106-0.001-7.485-1.695-18.093-9.761-26.144z" />
<glyph unicode="&#xe448;" glyph-name="font-size" d="M64 480v-160l64 96h128v-416h-64v-32h192v32h-64v416h128l64-96v160zM128 192h64l32-48v80h-224v-80l32 48h64v-192h-32v-32h96v32h-32z" />
<glyph unicode="&#xe449;" glyph-name="type" d="M32 480v-160l64 96h128v-416h-64l-32-32h256l-32 32h-64v416h128l64-96v160z" />
<glyph unicode="&#xe44c;" glyph-name="height" d="M448 96h64l-80-96-80 96h64v256h-64l80 96 80-96h-64zM256 384h-192v-320h192v320zM320 448v0-448h-320v448h320z" />
<glyph unicode="&#xe44d;" glyph-name="width" d="M128 32v-64l-96 80 96 80v-64h256v64l96-80-96-80v64zM416 384h-320v-160h320v160zM480 448v0-288h-448v288h448z" />
<glyph unicode="&#xe44e;" glyph-name="bold" d="M320.771 241.498v4.307c58.147 10.768 126.522 40.379 126.522 116.83 0 38.76-18.309 71.062-47.919 89.908-30.685 19.919-70.526 27.457-131.901 27.457h-235.273v-27.995c56.53-5.383 64.606-10.229 64.606-77.528v-300.417c0-65.894-7.625-71.844-64.807-77.559v-28.501h200.479c67.297 0 128.134 11.846 168.513 33.919 46.303 24.224 75.37 65.681 75.37 117.369 0.001 75.37-61.374 111.98-155.59 122.21zM192.001 403.012c0 16.151 1.615 27.459 7 33.379 4.846 4.306 18.846 10.229 36.609 10.229 44.15 0 87.221-26.918 87.221-98.522 0-64.068-35.535-93.678-113.062-93.678l-17.769 0.001v148.591zM252.304 1.918c-44.151-1.076-60.304 15.615-60.304 74.297h0.001v145.902h15.613c93.144 0 140.518-37.688 140.518-111.446 0-75.912-51.142-108.214-95.828-108.753z" />
<glyph unicode="&#xe44f;" glyph-name="underline" d="M64 32h384v-64h-384zM352 480h96v-32h-32v-224c0-88.365-71.635-160-160-160s-160 71.635-160 160v224h-32v32h128v-32h-32v-224c0-52.935 50.243-100 112-100s112 47.065 112 100v224h-32v32z" />
<glyph unicode="&#xe450;" glyph-name="italic" d="M448 480v-32h-65.28l-168-448h73.28v-32h-224v32h65.28l168 448h-73.28v32z" />
<glyph unicode="&#xe452;" glyph-name="strikethrough" d="M32 480v-160l64 96h128v-160h64v160h128l64-96v160zM288 0v160h-64v-160h-64l-32-32h256l-32 32zM0 224h512v-32h-512z" />
<glyph unicode="&#xe466;" glyph-name="table" d="M0 448v-448h512v448h-512zM192 160v96h128v-96h-128zM320 128v-96h-128v96h128zM320 384v-96h-128v96h128zM160 384v-96h-128v96h128zM32 256h128v-96h-128v96zM352 256h128v-96h-128v96zM352 288v96h128v-96h-128zM32 128h128v-96h-128v96zM352 32v96h128v-96h-128z" />
<glyph unicode="&#xe46f;" glyph-name="paragraph-left" d="M0 448h512v-64h-512zM0 352h320v-64h-320zM0 160h320v-64h-320zM0 256h512v-64h-512zM0 64h512v-64h-512z" />
<glyph unicode="&#xe470;" glyph-name="paragraph-center" d="M0 448h512v-64h-512zM96 352h320v-64h-320zM96 160h320v-64h-320zM0 256h512v-64h-512zM0 64h512v-64h-512z" />
<glyph unicode="&#xe471;" glyph-name="paragraph-right" d="M0 448h512v-64h-512zM192 352h320v-64h-320zM192 160h320v-64h-320zM0 256h512v-64h-512zM0 64h512v-64h-512z" />
<glyph unicode="&#xe472;" glyph-name="paragraph-justify" d="M0 448h512v-64h-512zM0 352h512v-64h-512zM0 256h512v-64h-512zM0 160h512v-64h-512zM0 64h512v-64h-512z" />
<glyph unicode="&#xe473;" glyph-name="indent-increase" d="M0 448h512v-64h-512zM192 352h320v-64h-320zM192 256h320v-64h-320zM192 160h320v-64h-320zM0 64h512v-64h-512zM0 128v192l128-96z" />
<glyph unicode="&#xe474;" glyph-name="indent-decrease" d="M0 448h512v-64h-512zM192 352h320v-64h-320zM192 256h320v-64h-320zM192 160h320v-64h-320zM0 64h512v-64h-512zM128 320v-192l-128 96z" />
<glyph unicode="&#xe47f;" glyph-name="embed" d="M144 352l-128-128 128-128h64l-128 128 128 128h-64zM368 352h-64l128-128-128-128h64l128 128-128 128z" />
<glyph unicode="&#xe480;" glyph-name="code" d="M64 224l128 128h-64l-128-128 128-128h64zM384 352h-64l128-128-128-128h64l128 128zM272 416l-80-384h48l80 384z" />
<glyph unicode="&#xe481;" glyph-name="console" d="M0 448v-448h512v448h-512zM480 32h-448v384h448v-384zM448 384h-384v-320h384v320zM224 224h-32v-32h-32v-32h-32v32h32v32h32v32h-32v32h-32v32h32v-32h32v-32h32v-32zM352 160h-96v32h96v-32z" />
<glyph unicode="&#xe482;" glyph-name="sevensegment0" d="M352 416l32 32-32 32h-192l-32-32 32-32zM384 432l-32-32v-128l32-32 32 32v128zM160 271.999v128.001l-32 32-32-32v-128.001l32-32zM352 176v-128l32-32 32 32v128l-32 32zM160 48v128l-32 32-32-32v-128l32-32zM160 32l-32-32 32-32h192l32 32-32 32z" />
<glyph unicode="&#xe483;" glyph-name="sevensegment1" d="M384 432l-32-32v-128l32-32 32 32v128zM352 176v-128l32-32 32 32v128l-32 32z" />
<glyph unicode="&#xe484;" glyph-name="sevensegment2" d="M128 448l32 32h192l32-32-32-32h-192zM384 240l-32 32v128l32 32 32-32v-128zM128 16l-32 32v128l32 32 32-32v-128zM128 224l32 32h192l32-32-32-32h-192zM128 0l32 32h192l32-32-32-32h-192z" />
<glyph unicode="&#xe485;" glyph-name="sevensegment3" d="M128 448l32 32h192l32-32-32-32h-192zM384 240l-32 32v128l32 32 32-32v-128zM384 16l-32 32v128l32 32 32-32v-128zM128 224l32 32h192l32-32-32-32h-192zM128 0l32 32h192l32-32-32-32h-192z" />
<glyph unicode="&#xe486;" glyph-name="sevensegment4" d="M384 240l-32 32v128l32 32 32-32v-128zM128 239.999l-32 32v128.001l32 32 32-32v-128.001zM384 16l-32 32v128l32 32 32-32v-128zM128 224l32 32h192l32-32-32-32h-192z" />
<glyph unicode="&#xe487;" glyph-name="sevensegment5" d="M128 448l32 32h192l32-32-32-32h-192zM128 239.999l-32 32v128.001l32 32 32-32v-128.001zM384 16l-32 32v128l32 32 32-32v-128zM128 224l32 32h192l32-32-32-32h-192zM128 0l32 32h192l32-32-32-32h-192z" />
<glyph unicode="&#xe488;" glyph-name="sevensegment6" d="M128 448l32 32h192l32-32-32-32h-192zM128 239.999l-32 32v128.001l32 32 32-32v-128.001zM384 16l-32 32v128l32 32 32-32v-128zM128 16l-32 32v128l32 32 32-32v-128zM128 224l32 32h192l32-32-32-32h-192zM128 0l32 32h192l32-32-32-32h-192z" />
<glyph unicode="&#xe489;" glyph-name="sevensegment7" d="M128 448l32 32h192l32-32-32-32h-192zM384 240l-32 32v128l32 32 32-32v-128zM384 16l-32 32v128l32 32 32-32v-128z" />
<glyph unicode="&#xe48a;" glyph-name="sevensegment8" d="M352 416l32 32-32 32h-192l-32-32 32-32zM384 432l-32-32v-128l32-32 32 32v128zM160 271.999v128.001l-32 32-32-32v-128.001l32-32zM352 176v-128l32-32 32 32v128l-32 32zM160 48v128l-32 32-32-32v-128l32-32zM128 224l32-32h192l32 32-32 32h-192zM160 32l-32-32 32-32h192l32 32-32 32z" />
<glyph unicode="&#xe48b;" glyph-name="sevensegment9" d="M128 448l32 32h192l32-32-32-32h-192zM384 240l-32 32v128l32 32 32-32v-128zM128 239.999l-32 32v128.001l32 32 32-32v-128.001zM384 16l-32 32v128l32 32 32-32v-128zM128 224l32 32h192l32-32-32-32h-192zM128 0l32 32h192l32-32-32-32h-192z" />
<glyph unicode="&#xe48c;" glyph-name="share" d="M432 128c-22.58 0-42.96-9.369-57.506-24.415l-215.502 107.751c0.657 4.126 1.008 8.353 1.008 12.664s-0.351 8.538-1.008 12.663l215.502 107.751c14.546-15.045 34.926-24.414 57.506-24.414 44.183 0 80 35.817 80 80s-35.817 80-80 80-80-35.817-80-80c0-4.311 0.352-8.538 1.008-12.663l-215.502-107.752c-14.546 15.045-34.926 24.415-57.506 24.415-44.183 0-80-35.818-80-80 0-44.184 35.817-80 80-80 22.58 0 42.96 9.369 57.506 24.414l215.502-107.751c-0.656-4.125-1.008-8.352-1.008-12.663 0-44.184 35.817-80 80-80s80 35.816 80 80c0 44.182-35.817 80-80 80z" />
<glyph unicode="&#xe48e;" glyph-name="mail" d="M426.655 480h-341.31c-46.94 0-85.345-38.392-85.345-85.329v-341.328c0-46.938 38.405-85.343 85.345-85.343h341.311c46.969 0 85.344 38.405 85.344 85.343v341.328c0 46.937-38.375 85.329-85.345 85.329zM128 352h256c4.569 0 9.002-0.981 13.072-2.831l-141.072-164.584-141.072 164.585c4.070 1.848 8.503 2.83 13.072 2.83zM96 128v192c0 0.67 0.028 1.336 0.070 2l93.832-109.47-92.799-92.8c-0.722 2.669-1.103 5.443-1.103 8.27zM384 96h-256c-2.827 0-5.601 0.381-8.27 1.103l91.059 91.059 45.211-52.748 45.212 52.747 91.058-91.059c-2.67-0.721-5.443-1.102-8.27-1.102zM416 128c0-2.827-0.381-5.6-1.103-8.27l-92.799 92.799 93.832 109.471c0.042-0.664 0.070-1.33 0.070-2v-192z" />
</font>
</defs>
</svg>
